<svg xmlns="http://www.w3.org/2000/svg" width="400" height="632.667"><g fill-rule="evenodd"><path d="M180.8 27.419c-9.604 1.019-15.609 2.156-17.912 3.39-.812.435-1.749.793-2.082.796-.747.006-5.405 1.16-10.206 2.528-4.867 1.388-14.953 5.054-18.615 6.766a218.372 218.372 0 01-5.097 2.303c-7.898 3.391-20.272 10.67-27.017 15.891a62.642 62.642 0 01-3.271 2.345c-.88.578-2.59 2.001-3.8 3.162s-2.97 2.586-3.911 3.167c-2.02 1.248-13.885 12.795-15.541 15.125-.632.888-2.228 2.819-3.548 4.291-2.774 3.094-4.254 5.019-8.286 10.782-1.603 2.29-3.494 4.9-4.202 5.8-6.248 7.932-15.771 29.874-20.327 46.835-.591 2.2-1.403 5.204-1.804 6.676-5.254 19.262-4.961 52.579.638 72.324.53 1.87 1.615 5.74 2.411 8.6 5.449 19.567 13.306 35.51 25.877 52.504 9.943 13.443 26.986 29.705 40.876 39.003 35.195 23.558 81.928 33.53 120.417 25.695 3.574-.728 14.426-3.315 16-3.815.66-.209 2.37-.725 3.8-1.147 3.869-1.14 13.486-4.599 16-5.755 17.35-7.98 24.848-12.445 39.071-23.266 3.403-2.589 19.32-18.021 22.917-22.219 22.94-26.771 36.629-60.497 39.209-96.6 1.001-14.013-.426-33.25-3.189-43-.405-1.43-1.036-3.95-1.402-5.6-1.77-7.986-5.233-18.296-9.029-26.879-1.527-3.453-2.777-6.423-2.778-6.6-.001-.176-.601-1.316-1.334-2.532-.734-1.216-1.465-2.746-1.626-3.4-.406-1.653-5.367-10.132-6.51-11.126-.517-.449-1.477-1.77-2.135-2.935-.658-1.166-2.161-3.257-3.34-4.646-1.178-1.39-2.368-2.948-2.644-3.464-.276-.515-1.545-2.058-2.82-3.429-1.276-1.371-2.812-3.279-3.415-4.241-1.315-2.097-12.66-13.69-15.036-15.364-.924-.651-2.413-1.887-3.309-2.745-1.542-1.478-5.277-4.468-10.04-8.039-2.847-2.135-11.543-7.8-11.973-7.8-.188 0-.898-.424-1.579-.943-1.549-1.179-12.3-6.581-17.671-8.878-4.116-1.76-6.181-2.548-12.144-4.631-5.145-1.797-15.659-4.723-17.029-4.739-.443-.005-1.47-.365-2.282-.8-5.963-3.196-34.202-5.099-50.312-3.39m8.486 7.381c.134.619-5.907 11.656-7.115 13-.792.88-1.893 2.32-2.448 3.2-.555.88-2.763 3.4-4.907 5.6-2.145 2.2-4.294 4.666-4.778 5.48-.483.814-1.544 1.879-2.358 2.368-.814.488-2.74 2.058-4.28 3.489-6.092 5.657-5.646 5.3-14.918 11.967-6.374 4.583-9.543 6.573-16.282 10.219-2.42 1.31-4.85 2.627-5.4 2.927-.55.3-1.159.546-1.354.548-.194.001-1.724.694-3.4 1.539-2.668 1.347-4.788 2.194-14.246 5.692-3.18 1.176-11.257 3.395-17.2 4.725-3.487.781-5.045 1.09-11.4 2.263-3.347.618-15.944 1.573-16.282 1.234-.414-.413 3.638-6.751 6.388-9.993 1.266-1.492 2.595-3.285 2.953-3.985.358-.7 1.886-2.579 3.396-4.174 1.51-1.596 2.745-3.112 2.745-3.37 0-.833 11.718-12.33 14.4-14.128 1.43-.959 3.23-2.387 4-3.174.77-.787 2.03-1.82 2.8-2.297.77-.477 2.3-1.563 3.4-2.414 20.819-16.103 52.775-28.269 79.544-30.283 2.829-.213 5.25-.494 5.38-.624.265-.264 1.294-.12 1.362.191m24.414.385c.935.21 4.58.833 8.1 1.385 24.998 3.92 49.667 14.166 69.109 28.704a169.38 169.38 0 004.042 2.926c.953.66 2.936 2.325 4.406 3.7 1.47 1.375 2.877 2.5 3.128 2.5.673 0 12.229 11.536 13.423 13.4.564.88 2.223 3.04 3.687 4.8 6.096 7.328 10.415 13.524 9.832 14.106-.245.245-10.519-.487-15.227-1.086-18.6-2.366-38.193-8.337-52.8-16.091-4.668-2.478-6.046-3.249-6.977-3.901-.563-.395-2.463-1.495-4.223-2.445-1.76-.95-3.804-2.246-4.542-2.88-.739-.634-2.815-2.103-4.615-3.264-1.799-1.161-4.212-2.946-5.361-3.967-1.15-1.021-2.584-2.117-3.186-2.435-.603-.319-2.626-2.138-4.496-4.042-1.87-1.905-4.339-4.072-5.486-4.815-1.148-.744-2.573-2.124-3.167-3.066-.594-.943-2.841-3.604-4.994-5.914-2.152-2.31-4.417-4.932-5.033-5.827a127.662 127.662 0 00-2.447-3.4c-2.038-2.722-5.273-8.071-5.273-8.718 0-.651 8.801-.411 12.1.33m-15.13 10.236c5.487 11.086 10.355 25.447 12.06 35.579.37 2.2.931 5.35 1.245 7 2.197 11.52 2.947 26.892 1.834 37.6-.24 2.31-.715 6.93-1.056 10.266-.647 6.336-1.296 9.704-2.63 13.665-.437 1.298-.973 3.33-1.191 4.515-.41 2.235-3.532 12.005-4.841 15.154-.412.99-1.568 3.78-2.569 6.2-2.326 5.622-3.993 8.769-4.724 8.918-1.845.376-11.981-24.731-13.693-33.918-.144-.77-.586-2.48-.984-3.8-.398-1.32-1.027-4.47-1.399-7-.372-2.53-.833-5.23-1.024-6-1.165-4.692-1.905-26.163-1.199-34.8.897-10.98 2.284-20.686 3.201-22.4.223-.416.863-2.656 1.422-4.977.907-3.765 2.55-9.018 4.982-15.935 2.096-5.959 7.014-14.531 8.14-14.186.251.077 1.342 1.931 2.426 4.119m20.898 22.711c.685.354 2.389 1.885 3.788 3.403s3.714 3.633 5.144 4.701c1.43 1.068 3.102 2.435 3.716 3.038 2.218 2.179 13.701 9.686 21.884 14.306 1.43.807 2.96 1.678 3.4 1.934 3.821 2.227 18.554 8.272 25.4 10.422 3.387 1.064 15.755 4.303 17.752 4.65 2.119.368 1.502.751-2.952 1.83-17.108 4.145-39.201 13.852-51.272 22.527-1.69 1.214-3.58 2.471-4.2 2.794-.62.323-1.578 1.068-2.127 1.656-.55.588-2.019 1.689-3.266 2.446-1.246.758-2.808 1.994-3.469 2.747-.662.754-2.162 2.039-3.334 2.856-1.173.817-5.14 4.464-8.818 8.103-7.076 7.004-7.656 7.365-6.405 3.983.433-1.171.917-3.021 1.076-4.112.159-1.092.62-2.892 1.024-4 1.37-3.763 2.019-7.915 3.688-23.616.958-9.007.547-26.164-.871-36.4-.942-6.801-4.147-21.801-5.281-24.715-1.384-3.558-1.028-3.877 1.567-1.402 1.271 1.213 2.871 2.495 3.556 2.849m-42.617-1.028c-.252 1.281-.901 3.725-1.443 5.43-1.685 5.31-2.939 13.353-3.796 24.34-.183 2.351-.423 4.421-.533 4.6-.286.466.852 28.65 1.273 31.526.194 1.32.652 3.84 1.018 5.6.366 1.76.829 4.477 1.03 6.038.2 1.56.713 3.99 1.138 5.4 1.407 4.657 2.922 10.835 2.711 11.047-.093.093-2.662-2.272-5.709-5.255-3.047-2.984-5.688-5.426-5.87-5.427-.181-.002-1.351-.967-2.6-2.146-1.248-1.179-2.993-2.664-3.877-3.3-.885-.636-2.685-2.025-4-3.085-2.383-1.921-13.095-9.072-13.589-9.072-.143 0-1.012-.515-1.932-1.145-8.194-5.613-32.399-15.147-45.314-17.849-3.693-.773-3.89-1.485-.558-2.018.77-.123 2.3-.48 3.4-.794 8.993-2.564 12.019-3.488 14.8-4.524 1.76-.655 4.46-1.657 6-2.226 1.54-.57 4.06-1.662 5.6-2.428s3.79-1.838 5-2.381c5.612-2.521 15.223-8.108 20-11.626 1.87-1.377 3.817-2.721 4.328-2.985.51-.265 1.907-1.369 3.104-2.453 1.197-1.084 2.367-1.971 2.6-1.971.234 0 2.347-1.868 4.696-4.151 2.35-2.284 5.304-4.808 6.566-5.609 1.262-.801 3.152-2.506 4.2-3.787 2.266-2.77 2.349-2.758 1.757.251m11.528 4.196c-.445 2.147-.226 9.406.301 9.989 1.253 1.384 2.651.937 2.335-.747-.379-2.023-.262-2.046 6.788-1.329 3.434.348 6.326.502 6.425.342.265-.429-2.119-7.319-2.586-7.474-1.452-.484-2.502 1.513-1.641 3.121.613 1.145-.02 1.275-3.889.797-5.181-.639-5.312-.682-5.312-1.753 0-1.266-2.211-3.957-2.421-2.946m3.421 14.302c-7.592 2.384-3.885 11.43 5.019 12.251 5.321.491 7.364-.881 7.686-5.161.411-5.46-6.18-9.139-12.705-7.09m8.059 3.803c1.997.995 2.922 2.196 2.647 3.437-.603 2.718-11.179 2.151-12.257-.658-1.311-3.418 4.788-5.182 9.61-2.779m-7.233 10.625c-9.044 2.229-4.668 12.443 5.352 12.491 5.043.025 6.15-.903 6.559-5.497l.247-2.776-1.706-1.635c-2.421-2.319-6.965-3.442-10.452-2.583m7.174 3.938c3.892 1.708 3.643 4.452-.474 5.216-4.253.79-9.326-1.036-9.326-3.358 0-2.719 5.472-3.757 9.8-1.858m129.899 10.664c.34.341-2.391 5.332-3.846 7.028-.689.802-1.753 2.274-2.364 3.269-.612.995-1.882 2.679-2.824 3.74-.942 1.062-2.11 2.587-2.596 3.39-1.331 2.198-19.504 19.869-23.114 22.475-1.735 1.253-4.814 3.49-6.842 4.972-8.208 5.996-17.839 11.434-30.809 17.395-12.902 5.929-33.973 11.009-50.204 12.105-3.879.261-3.888.254-2.514-2.006.535-.88 1.323-2.23 1.752-3 .428-.77 2.058-2.998 3.62-4.95 1.563-1.953 2.842-3.717 2.842-3.921 0-.204 1.239-1.68 2.754-3.28 1.514-1.6 3.028-3.436 3.364-4.079.71-1.36 13.567-14.17 14.221-14.17.242 0 1.724-1.125 3.294-2.5 3.097-2.714 4.133-3.484 11.971-8.9 21.509-14.862 49.889-25.153 74.338-26.957 2.939-.217 5.444-.496 5.567-.619.292-.292 1.094-.287 1.39.008m-141.32.668c-.445 2.147-.226 9.406.301 9.989 1.305 1.441 2.628.934 2.32-.889-.202-1.197-.135-1.609.265-1.637 1.236-.086 4.003.117 8.135.597 2.42.281 4.542.389 4.715.24.386-.331-1.918-7.334-2.473-7.519-1.452-.484-2.502 1.513-1.641 3.121.596 1.114.058 1.222-3.85.777-5.151-.587-5.351-.652-5.351-1.733 0-1.266-2.211-3.957-2.421-2.946M74.4 117.2c.99.195 4.68.807 8.2 1.362 14.838 2.337 31.264 7.375 42.8 13.128 1.1.549 3.53 1.748 5.4 2.665 1.87.917 3.76 1.876 4.2 2.132 4.711 2.736 13.947 8.721 16.347 10.594 1.07.835 3.05 2.266 4.4 3.18 1.349.913 3.173 2.423 4.053 3.354.88.932 2.32 2.139 3.2 2.682 1.973 1.218 12.439 11.495 13.234 12.995.318.601 1.887 2.671 3.487 4.6 4.756 5.739 10.279 13.859 10.279 15.116 0 1.031-17.47-.881-25.882-2.832-1.365-.317-2.92-.576-3.454-.576-.535 0-1.938-.288-3.118-.64a770.84 770.84 0 00-4.146-1.222c-10.529-3.067-23.04-7.852-27.4-10.481-.99-.597-3.51-1.869-5.6-2.828-2.09-.959-5.294-2.752-7.119-3.986a260.822 260.822 0 00-5.865-3.843c-1.399-.88-3.236-2.149-4.08-2.821-.845-.671-2.166-1.603-2.936-2.072-.77-.468-1.94-1.417-2.6-2.109-.66-.691-2.19-1.866-3.4-2.61-1.912-1.175-7.541-6.685-18.992-18.588-1.376-1.43-2.777-3.14-3.114-3.8-.338-.66-1.32-2.01-2.184-3-1.179-1.351-6.11-9.941-6.11-10.643 0-.558 7.174-.39 10.4.243m264.717 5.524c7.979 17.595 10.954 26.612 13.29 40.276.451 2.64 1.082 5.97 1.401 7.4 1.353 6.063 2.286 26.747 1.443 32-.23 1.43-.624 4.94-.877 7.8-1.024 11.598-1.311 13.406-2.937 18.548-.531 1.678-1.147 3.952-1.368 5.052-1.382 6.863-10.156 29.2-11.469 29.2-1.886 0-10.873-23.819-13.636-36.143-.313-1.398-.662-2.692-.775-2.874-.112-.182-.371-1.558-.575-3.057-.204-1.499-.726-4.436-1.161-6.526-2.149-10.338-2.466-40.143-.494-46.397.243-.769.441-2.097.441-2.951 0-4.258 6.411-26.743 9.995-35.052 5.168-11.984 4.778-11.562 6.722-7.276m-280.878.619c3.517 4.702 7.91 14.897 11.121 25.808 3.638 12.358 4.676 17.74 6.337 32.849 1.341 12.199.26 29.371-2.864 45.472-.591 3.046-1.828 7.768-3.613 13.795-1.399 4.72-2.131 6.878-4.535 13.372-.837 2.261-2.01 4.529-4.592 8.872-2.595 4.367-2.653 4.36-4.98-.592-5.256-11.185-8.363-19.388-10.507-27.738a284.2 284.2 0 00-1.829-6.781c-.416-1.43-.846-3.23-.957-4-.607-4.247-1.48-9.212-1.832-10.42-.41-1.408-1.091-15.203-1.214-24.58-.124-9.553 1.892-27.506 3.601-32.061.4-1.067 1.041-3.379 1.425-5.139.384-1.76.966-3.92 1.294-4.8.327-.88 1.012-2.95 1.521-4.6 3.328-10.786 9.066-23.332 9.974-21.805.226.38.969 1.436 1.65 2.348m230.106 6.755c-.728.936-1.419 1.794-1.535 1.905-1.923 1.861-2.152 2.377-1.414 3.193 1.04 1.149 2.083.997 2.811-.409.832-1.609 1.028-1.42 3.164 3.059 2.139 4.486 2.08 4.103.822 5.296-.934.886-1.344 2.773-.735 3.382.141.142.862-.273 1.601-.922s2.368-1.648 3.62-2.221c2.793-1.278 3.335-1.937 2.884-3.511-.455-1.585-.491-1.599-1.665-.676-1.706 1.343-2.008 1.046-4.898-4.824-3.284-6.668-2.995-6.403-4.655-4.272m-190.004.058c-7.693 2.748-10.043 14.078-3.161 15.241 7.099 1.199 14.829-10.731 8.909-13.751-.848-.433-1.778-1.071-2.065-1.417-.625-.754-1.716-.775-3.683-.073m89.775 4.646c-.083 4.697-.064 4.814.896 5.443 1.47.963 2.283.47 1.971-1.194-.362-1.93-.125-1.972 6.814-1.207 3.414.376 6.314.578 6.444.449.465-.466-2.116-7.288-2.81-7.426-1.489-.296-2.474 1.93-1.351 3.053 1.005 1.005-.298 1.2-4.28.643-4.954-.694-5-.712-5-1.95 0-.557-.36-1.373-.8-1.813-1.574-1.574-1.795-1.106-1.884 4.002m-85.501-1.435c1.71 2.61-3.217 9.966-6.675 9.966-4.045 0-1.295-8.236 3.46-10.364 1.748-.783 2.503-.689 3.215.398m173.572 4.118c-.398.613-1.441 1.97-2.318 3.015-1.553 1.851-1.575 1.92-.869 2.7 1.003 1.108 1.581 1.006 2.75-.488 1.21-1.546.947-1.791 3.227 3.007l1.863 3.918-1.02 1.212c-.584.695-1.02 1.712-1.02 2.382 0 1.416.109 1.429 1.727.208.7-.529 2.443-1.564 3.873-2.3 2.342-1.206 2.613-1.473 2.729-2.69.185-1.932-.407-2.311-1.893-1.213-1.576 1.166-1.486 1.265-4.758-5.262-2.923-5.832-3.218-6.14-4.291-4.489m-166.65 1.094c-.591 1.297.121 2.221 1.712 2.221 1.617 0 1.47.655-.865 3.845-3.012 4.115-3.152 4.256-3.909 3.932-1.37-.588-2.695-.613-3.436-.063-.811.602-.578 1.486.393 1.486.659 0 3.394 1.641 5.099 3.059 1.26 1.049 2.516 1.184 3.569.384 1.054-.8.844-1.715-.5-2.183-1.828-.637-1.794-.714 3.703-8.343 2.456-3.409 2.589-4.115.773-4.119-.592-.001-1.706-.164-2.476-.361-3.564-.914-3.582-.913-4.063.142m210.681 4.959c-2.06 7.326-3.935 15.133-4.289 17.862-.2 1.54-.559 3.61-.797 4.6-2.003 8.322-1.675 39.523.528 50.2.454 2.2.955 5.17 1.115 6.6.159 1.43.494 2.982.743 3.448.25.467.633 1.817.85 3 .463 2.522 1.952 8.195 3.179 12.113.476 1.518.773 2.853.66 2.965-.112.113-3.426-2.93-7.364-6.761-7.512-7.308-11.179-10.641-13.843-12.581-.88-.641-2.5-1.903-3.6-2.804-1.791-1.467-9.493-6.563-15.4-10.188-6.797-4.172-18.607-9.568-29.4-13.435-4.239-1.519-14.698-4.481-17.615-4.989-2.753-.479-3.279-.983-1.485-1.422 8.208-2.007 21.675-6.447 27-8.901 1.485-.685 3.915-1.796 5.4-2.469 2.543-1.153 10.048-5.11 14.749-7.776 2.652-1.504 6.236-3.866 9.406-6.2 1.345-.99 3.063-2.179 3.819-2.642.755-.463 2.038-1.477 2.85-2.253.812-.777 2.247-1.889 3.19-2.472.942-.583 2.392-1.729 3.221-2.547 11.409-11.247 17.753-17.331 17.911-17.174.106.107-.267 1.828-.828 3.826m-57.254 2.921c-3.23 4.045-3.083 3.765-2.353 4.495.988.988 2.029.775 2.894-.591l.783-1.238.856 1.385c.471.761.856 1.514.856 1.671 0 .158.573 1.44 1.274 2.848l1.275 2.561-.825.905c-2.106 2.313-1.913 4.981.216 2.984.583-.547 2.23-1.577 3.66-2.288 2.906-1.446 3.185-1.732 3.194-3.267.008-1.503-.673-1.764-2.016-.771-.63.466-1.242.847-1.359.847-.118 0-1.566-2.7-3.219-6-1.653-3.3-3.065-6-3.138-6-.074 0-1.018 1.107-2.098 2.459m-180.792 4.432c2.782 2.92 6.356 6.34 7.943 7.6 8.207 6.516 12.823 9.822 20.285 14.531 2.363 1.491 15.72 8.278 19.8 10.06 8.019 3.504 24.007 8.593 29.9 9.519 2.085.327 1.872.83-.6 1.42-3.789.902-12.422 3.51-16.5 4.984-2.2.795-4.475 1.596-5.056 1.78-4.046 1.281-23.66 11.222-28.203 14.295a2146.435 2146.435 0 01-6.759 4.553c-1.551 1.039-3.067 2.188-3.371 2.554-.304.366-1.105.951-1.78 1.3-.675.35-2.308 1.664-3.629 2.921-1.321 1.257-3.122 2.741-4.002 3.299-.88.557-4.21 3.59-7.4 6.74-6.234 6.157-6.853 6.389-5.446 2.044 1.373-4.238 3.365-14.012 4.259-20.891 2.882-22.174 1.368-46.136-4.16-65.844-2.056-7.332-2.012-7.069-1.109-6.586.424.227 3.046 2.801 5.828 5.721m40.222-5.279c-.738 1.379-.133 2.388 1.433 2.388.884 0 1.373.192 1.373.538 0 .411-4.128 6.523-4.983 7.378-.086.087-.792-.072-1.567-.352-1.089-.394-1.643-.404-2.43-.046-1.183.539-1.323 1.21-.32 1.531 1.415.452 2.708 1.186 4.67 2.651 2.226 1.663 3.376 1.865 4.368.769.952-1.053.823-1.535-.538-2.009-1.61-.561-1.528-.993.812-4.26 5.729-8 5.817-8.198 3.664-8.202-.592-.001-1.706-.164-2.476-.361-3.419-.877-3.55-.878-4.006-.025m129.496 6.787c-.958.755-1.607 1.032-2.741 1.17-.527.064-1.294 2.62-1.317 4.388-.108 8.227 7.949 13.947 12.057 8.561 4.18-5.48-2.964-18.089-7.999-14.119m-116.681.385c-.752 1.405-.159 2.416 1.418 2.416 1.902 0 1.775.603-.857 4.066-1.227 1.614-2.371 3.18-2.542 3.481-.26.456-.551.46-1.75.027-2.527-.914-4.69.627-2.281 1.625.658.272 2.323 1.282 3.7 2.244 2.735 1.911 3.83 2.143 4.841 1.026.939-1.038.83-1.43-.538-1.947-1.676-.632-1.555-1.063 1.508-5.34 3.964-5.537 4.665-6.748 4.025-6.953-.293-.095-1.746-.369-3.229-.611s-2.954-.539-3.269-.66c-.333-.128-.764.135-1.026.626m120.27 3.283c3.131 3.262 4.285 8.775 2.083 9.953-3.625 1.94-9.058-8.556-5.769-11.143 1.258-.989 1.745-.832 3.686 1.19m-106.882 3.274c-7.867 3.663-8.782 14.766-1.223 14.839 6.82.067 13.202-10.936 7.905-13.628-.814-.414-1.714-1.067-2.002-1.452-.712-.954-2.289-.873-4.68.241m90.917.859c-.809.55-1.746 1-2.083 1-1.91 0-2.647 5.871-1.157 9.22 4.527 10.17 15.414 6.211 11.786-4.286-1.864-5.394-5.562-7.962-8.546-5.934m-85.683 1.992c1.877 2.864-4.406 11.034-7.563 9.834-1.26-.479-1.624-1.598-1.118-3.431 1.417-5.131 6.876-9.158 8.681-6.403m88.96 1.35c2.83 2.975 4.304 7.538 3.051 9.45-1.972 3.01-6.777-1.463-7.33-6.824-.422-4.089 1.667-5.372 4.279-2.626M212.3 196.818c6.343.836 8.483 1.157 12.9 1.932 24.026 4.217 47.941 14.324 66.534 28.118a232.32 232.32 0 004.095 2.966c.968.679 2.803 2.229 4.077 3.444 1.275 1.216 2.942 2.528 3.706 2.917 1.92.977 11.781 10.737 13.459 13.321.755 1.163 2.406 3.323 3.669 4.8 2.966 3.469 7.934 10.104 9.567 12.778l1.278 2.094-.987.248c-.543.136-2.129.049-3.525-.194s-3.899-.442-5.561-.442-5.427-.454-8.367-1.009c-2.94-.556-6.965-1.3-8.945-1.654-7.048-1.26-21.48-5.693-29.2-8.97-4.813-2.042-19.14-9.329-21.398-10.883-.991-.682-3.422-2.341-5.402-3.688-7.204-4.898-9.227-6.349-10.6-7.603-.77-.703-2.226-1.833-3.235-2.51-2.485-1.668-19.757-19.368-21.414-21.944-.729-1.134-2.007-2.851-2.838-3.815-2.051-2.378-6.243-9.39-5.923-9.907.316-.513 4.221-.512 8.11.001m-22.7.192c0 .653-2.851 5.715-3.598 6.39-.488.44-1.214 1.43-1.613 2.2-.4.77-1.636 2.48-2.748 3.8-1.111 1.32-2.627 3.3-3.368 4.4-1.585 2.352-19.664 20.206-21.873 21.6-.834.527-2.542 1.792-3.794 2.813-13 10.588-33.33 20.966-52.406 26.752-12.152 3.685-33.426 7.011-34.432 5.383-.425-.688 2.445-6.055 5.213-9.748 1.483-1.98 2.934-4.05 3.224-4.6.29-.55 1.365-1.793 2.389-2.762 1.023-.97 2.455-2.68 3.181-3.8C81.136 247.337 92.393 236 93.119 236c.392 0 3.235-2.177 6.757-5.174 10.709-9.113 29.241-19.355 45.651-25.228 11.766-4.212 26.748-7.566 37.273-8.345 6.292-.465 6.8-.484 6.8-.243m12.175 12.14c5.435 12.11 9.33 23.895 10.791 32.65.33 1.98.899 5.22 1.264 7.2 2.261 12.283 3.022 27.65 1.881 38-.242 2.2-.719 6.73-1.059 10.066-.648 6.354-1.35 10.008-2.653 13.808-.429 1.25-.948 3.23-1.154 4.4-.873 4.953-7.929 23.729-11.121 29.595-.584 1.073-1.256 1.89-1.493 1.814-.628-.201-2.837-3.997-3.975-6.832a247.468 247.468 0 00-2.624-6.166c-2.588-5.865-5.863-15.761-7.441-22.485-.284-1.21-.795-3.28-1.136-4.6-.539-2.085-1.118-5.281-2.72-15-.2-1.21-.514-7.78-.698-14.6-.32-11.827-.156-16.877.771-23.8.22-1.65.572-4.71.78-6.8.208-2.09.76-5.15 1.225-6.8.466-1.65 1.285-4.71 1.821-6.8s1.165-4.34 1.397-5c.233-.66.931-2.82 1.553-4.8 2.069-6.59 6.561-17.468 8.733-21.149l.907-1.538 1.612 2.494c.886 1.371 2.389 4.226 3.339 6.343m40.825.867c-8.421 1.975-11.677 13.741-4.254 15.371 6.702 1.472 14.813-10.697 9.058-13.588-.876-.44-1.776-1-1.999-1.244-.621-.681-1.488-.847-2.805-.539m-95.206 2.249c-.384.586-1.398 1.824-2.252 2.751-1.714 1.859-1.724 2.822-.036 3.245.805.202 1.179.035 1.789-.803 1.102-1.513 1.249-1.403 2.73 2.041.733 1.705 1.575 3.485 1.871 3.956.484.77.416.991-.679 2.189-.744.815-1.217 1.765-1.217 2.444 0 1.368-.022 1.369 2.08-.05.946-.638 2.748-1.615 4.005-2.171 2.477-1.095 3.179-2.254 2.328-3.843l-.454-.85-1.141.813c-1.717 1.222-1.704 1.236-4.639-4.988-2.859-6.065-3.242-6.479-4.385-4.734m98.377.763c2.43 2.429-4.025 11.433-7.423 10.354-3.161-1.003-.132-8.414 4.252-10.406 1.589-.722 2.411-.709 3.171.052m-110.34 5.976c-.807.547-1.785.995-2.175.995-2.173 0-2.727 5.981-.909 9.823 2.916 6.165 8.779 7.427 11.324 2.437 3.063-6.003-3.461-16.498-8.24-13.255m117.255-.212c-.127.486-.134 1.137-.016 1.446.199.518.476.612 2.125.723 1.108.074.828 1.231-.764 3.154-.872 1.054-1.971 2.539-2.441 3.3-.944 1.528-1.054 1.568-2.638.966-2.416-.919-4.296.813-1.947 1.794.773.323 2.423 1.316 3.665 2.206 2.566 1.837 3.735 2.008 4.933.723l.834-.896-1.318-.604c-1.998-.915-1.985-1.051.432-4.477 1.237-1.753 2.946-4.173 3.797-5.376 1.779-2.516 1.755-2.585-1.054-3.025-5.652-.887-5.358-.89-5.608.066M138.255 222.1c3.939 3.453 5.027 10.7 1.607 10.7-3.611 0-7.347-8.026-5.074-10.9 1.12-1.416 1.659-1.385 3.467.2m40.945 1.841c0 .62-2.348 9.827-2.922 11.459-.642 1.823-1.652 7.505-2.276 12.8-.233 1.98-.596 4.59-.806 5.8-.661 3.797-.866 16.599-.433 27 .428 10.313.705 13.062 1.833 18.2.363 1.65.815 4.35 1.005 6 .191 1.65.703 4.17 1.139 5.6.436 1.43.995 3.41 1.242 4.4.898 3.604 1.611 6.241 2.189 8.1.755 2.428.182 2.437-1.479.023-2.049-2.976-3.894-4.893-6.278-6.524-1.218-.833-3.474-2.846-5.014-4.474-1.54-1.628-3.7-3.577-4.8-4.33-1.1-.754-2.555-1.924-3.233-2.602-.678-.678-2.549-2.099-4.156-3.158-1.608-1.059-3.671-2.497-4.584-3.194-.914-.697-3.184-2.143-5.044-3.212-1.861-1.07-4.013-2.354-4.783-2.854-2.113-1.372-5.539-3.264-8-4.418-1.21-.568-3.64-1.714-5.4-2.548-8.113-3.844-17.17-7.081-27.269-9.745-7.5-1.978-7.479-1.858-.646-3.754 7.032-1.95 18.034-5.779 20.402-7.099.929-.517 2.369-1.162 3.2-1.433 1.903-.619 14.364-7.003 15.658-8.021.53-.416 1.165-.757 1.412-.757.444 0 5.637-3.346 9.762-6.288a429.538 429.538 0 013.958-2.788c1.012-.701 2.488-1.896 3.281-2.656.793-.759 1.982-1.657 2.642-1.997.66-.339 5.156-4.499 9.99-9.244 8.284-8.13 9.41-9.121 9.41-8.286m42.335 5.462c2.456 2.555 4.465 4.788 4.465 4.962 0 .175 1.277 1.289 2.838 2.476 1.561 1.188 3.625 2.851 4.586 3.697 8.208 7.223 24.677 17.027 38.576 22.964 8.101 3.46 20.848 7.569 27.091 8.732 4.166.776 5.513 1.167 5.482 1.591-.028.376-.444.525-3.773 1.35-6.602 1.636-9.697 2.489-11.8 3.253-1.32.48-3.57 1.289-5 1.798-5.607 1.996-8.334 3.083-11.6 4.623-10.339 4.877-19.137 9.837-24.6 13.868-1.76 1.299-3.83 2.736-4.6 3.194-.77.458-1.94 1.402-2.6 2.097-.66.695-1.722 1.536-2.359 1.869-.638.333-3.248 2.532-5.8 4.887-2.553 2.356-5.461 4.842-6.464 5.526-2.078 1.417-4.45 3.918-5.331 5.622-.33.637-1.735 2.212-3.123 3.498-3.085 2.86-3.366 2.388-1.536-2.575.673-1.824 1.506-4.689 1.853-6.368.347-1.678.797-3.363 1.001-3.744.991-1.851 2.086-8.959 3.656-23.723 1.335-12.555.53-28.816-2.138-43.2-1.94-10.458-2.773-14.242-3.793-17.23-2.009-5.887-1.392-5.783 4.969.833m43.895-3.499c-.4 1.26.15 2.056 1.609 2.33.748.14 1.361.414 1.361.608 0 .265-4.239 6.268-5.004 7.087-.067.071-.782-.053-1.591-.277-1.028-.284-1.76-.273-2.437.036-1.054.48-1.32 1.512-.391 1.512.731 0 3.206 1.421 5.014 2.878 1.624 1.31 3.197 1.44 4.186.347.723-.798.557-1.625-.324-1.625-2.087 0-2.015-1.003.302-4.236 6.262-8.738 6.137-8.254 2.245-8.717-1.21-.144-2.767-.366-3.46-.494-1.018-.188-1.309-.082-1.51.551m-143.236 1.562c-.384.586-1.42 1.848-2.303 2.806-1.559 1.691-1.584 1.762-.886 2.534.972 1.073 1.969.999 2.758-.206.899-1.371 1.374-1.257 2.086.5.334.825 1.141 2.657 1.791 4.07l1.184 2.571-1.212 1.107c-2.057 1.878-1.573 4.173.539 2.562.689-.526 2.441-1.488 3.892-2.139 3.016-1.354 3.876-2.717 2.792-4.428-.29-.458-.564-.406-1.555.3-1.734 1.234-1.802 1.186-3.473-2.443a1964.04 1964.04 0 00-2.684-5.8c-1.279-2.747-1.877-3.04-2.929-1.434m157.616 4.427c-3.601.913-7.157 5.877-7.19 10.037-.062 7.816 10.458 6.591 14.201-1.654 1.451-3.195.496-7.076-1.741-7.076-.306 0-.882-.36-1.28-.8-.705-.779-2.178-.966-3.99-.507M108.596 236.3c-2.718 3.24-2.847 3.507-2.063 4.29.886.886 1.757.75 2.504-.39 1.07-1.634 1.549-1.203 3.353 3.022l1.717 4.022-1.053 1.1c-.689.719-1.054 1.542-1.054 2.378 0 1.462.38 1.605 1.367.515.379-.42 2.023-1.413 3.651-2.207 3.21-1.565 3.82-2.251 3.498-3.934-.249-1.305-.649-1.364-2.007-.296-1.459 1.148-1.595 1.067-2.867-1.7-3.501-7.619-4.409-9.5-4.586-9.5-.107 0-1.215 1.215-2.46 2.7m175.023-1.9c1.608 0 1.022 3.882-1.047 6.927-3.983 5.862-9.263 4.552-6.404-1.589 1.417-3.044 5.028-6.086 6.565-5.53.293.105.691.192.886.192m-91.29 2.392c-1.671.906-1.971 1.583-2.137 4.82-.33 6.433 10.354 9.922 15.284 4.992 5.381-5.381-5.854-13.766-13.147-9.812m100.281 2.301c-8.028 2.035-9.965 15.293-2.236 15.304 6.909.011 13.36-10.876 8.05-13.585-.813-.414-1.713-1.037-2-1.383-.505-.608-2.163-.754-3.814-.336m-91.081.723c5.275 1.567 3.875 5.689-1.958 5.761-3.637.045-7.849-2.391-7.489-4.33.343-1.844 5.452-2.617 9.447-1.431M97.514 241.8c-.809.55-1.746 1-2.083 1-.936 0-1.942 2.351-1.964 4.59-.072 7.433 6.749 13.206 11.095 9.39 5.692-4.998-.953-19.122-7.048-14.98m199.186.311c2.486 1.924-3.097 10.289-6.866 10.289-3.099 0-1.572-6.856 2.072-9.303 2.867-1.925 3.431-2.041 4.794-.986m-195.701 3.14c3.65 4.041 4.371 10.349 1.183 10.349-3.348 0-7.166-8.028-5.226-10.988.987-1.508 2.289-1.302 4.043.639m93.601 5.564c-6.167.882-6.315 9.018-.214 11.678 4.148 1.809 10.362.715 11.806-2.077 2.759-5.335-3.746-10.723-11.592-9.601m7.6 3.93c2.887 1.314 3.383 3.043 1.315 4.582-3.881 2.886-14.091-1.306-10.593-4.35 1.463-1.274 6.7-1.404 9.278-.232m-8.822 10.882c-2.955.859-4.51 6.425-2.507 8.972 3.144 3.997 11.647 4.65 14.737 1.131 4.571-5.206-4.186-12.44-12.23-10.103m7.606 3.348c2.282.687 3.816 2.014 3.816 3.301 0 3.403-10.038 3.279-12.287-.152-1.848-2.821 3.256-4.718 8.471-3.149M330 278.016c0 .626-1.526 3.491-2.024 3.799-.239.148-1.236 1.519-2.216 3.047-.979 1.528-2.47 3.534-3.314 4.458-.843.924-2.021 2.462-2.618 3.417-.597.956-4.896 5.456-9.554 10-11.841 11.554-11.782 11.499-14.651 13.587-1.417 1.032-3.937 2.87-5.6 4.086-8.979 6.562-17.462 11.365-31.423 17.79-12.238 5.632-35.913 11.458-48.103 11.838-3.708.115-3.742.055-1.511-2.685 1.029-1.263 2.204-2.939 2.611-3.724.407-.786 1.652-2.509 2.765-3.829 1.114-1.32 2.497-3.12 3.075-4 .577-.88 2.72-3.31 4.763-5.4 2.043-2.09 4.191-4.574 4.775-5.52.583-.946 1.831-2.209 2.774-2.807.942-.597 3.589-2.823 5.882-4.946 3.932-3.64 9.346-7.973 12.123-9.703.685-.427 2.236-1.526 3.446-2.443 4.705-3.564 13.558-8.549 24.4-13.739 8.988-4.303 24.034-9.064 34.8-11.012 1.65-.298 4.53-.822 6.4-1.163 7.909-1.442 13.2-1.864 13.2-1.051m-254.526.605c12.256 1.939 16.905 2.832 22.126 4.25 11.072 3.008 18.318 5.598 26.963 9.638 4.361 2.038 11.179 5.546 11.837 6.091.683.565 3.825 2.362 6.2 3.547.88.439 2.41 1.461 3.4 2.271.99.81 3.061 2.278 4.602 3.262 1.541.984 3.864 2.718 5.162 3.854 1.298 1.136 2.539 2.066 2.758 2.066.219 0 2.306 1.868 4.638 4.151 2.332 2.283 5.014 4.631 5.96 5.218.946.586 2.209 1.837 2.807 2.78.597.942 2.85 3.61 5.006 5.928 2.155 2.318 4.492 5.034 5.193 6.034a216.845 216.845 0 003.012 4.155c6.438 8.644 6.672 9.215 3.597 8.778-.954-.135-4.168-.389-7.143-.564-2.974-.175-5.593-.434-5.82-.574-.363-.224-2.719-.668-12.372-2.333-4.715-.814-21.808-6.056-26-7.975-.88-.403-2.95-1.296-4.6-1.985-1.65-.688-3.63-1.652-4.4-2.141-.77-.49-3.29-1.772-5.6-2.85-4.894-2.284-8.216-4.205-10.966-6.342-1.082-.84-2.494-1.801-3.139-2.134-1.619-.838-7.316-4.954-9.495-6.861-.99-.866-2.52-2.027-3.4-2.58-.88-.552-5.2-4.667-9.6-9.144-4.4-4.477-8.829-8.955-9.842-9.951-1.013-.995-2.27-2.53-2.793-3.41-.523-.88-1.515-2.23-2.205-3-1.243-1.388-6.495-8.965-6.843-9.872-.376-.98 5.636-1.149 10.957-.307m116.855 2.171c-1.671.906-1.971 1.583-2.137 4.82-.33 6.415 10.367 9.909 15.284 4.992 5.379-5.379-5.857-13.765-13.147-9.812m10.414 3.378c3.978 2.057 1.889 5.421-3.372 5.428-5.709.008-9.81-4.858-5.171-6.136 1.587-.437 7.234.031 8.543.708m-8.543 10.59c-3.142.788-3.776 1.63-3.984 5.283l-.167 2.941 1.709 1.637c6.265 6.003 18.072 1.598 14.456-5.393-1.62-3.133-7.952-5.488-12.014-4.468m7.4 3.717c1.798.541 3.2 1.825 3.2 2.931 0 2.903-6.78 3.778-10.718 1.383-5.122-3.115.597-6.397 7.518-4.314" fill="#7db004"/><path d="M180.1.273c-2.035.086-3.7.309-3.7.494s-2.07.466-4.6.625c-2.53.158-4.6.449-4.6.647 0 .199-.9.361-2 .361s-2 .154-2 .343c0 .188-1.277.461-2.838.606-1.561.145-3.169.441-3.574.657-.404.217-1.287.394-1.962.394-.674 0-1.226.166-1.226.368 0 .203-1.17.494-2.6.647-1.43.153-2.6.437-2.6.632 0 .194-.63.353-1.4.353-.77 0-1.4.163-1.4.362 0 .2-.9.487-2 .638-1.1.151-2 .438-2 .638 0 .199-.54.362-1.2.362-.66 0-1.2.163-1.2.362 0 .2-.9.487-2 .638-1.1.151-2 .438-2 .638 0 .199-.45.362-1 .362s-1 .16-1 .355c0 .195-.81.476-1.8.624-.99.149-1.8.439-1.8.646 0 .206-.45.375-1 .375s-1 .178-1 .395c0 .218-.72.511-1.6.651-.88.141-1.6.413-1.6.605s-.27.349-.6.349c-.33 0-.6.16-.6.355 0 .195-.81.476-1.8.624-.99.149-1.8.439-1.8.646 0 .206-.27.375-.6.375-.33 0-.6.157-.6.349 0 .192-.72.464-1.6.605-.88.14-1.6.433-1.6.651 0 .217-.36.395-.8.395-.44 0-.8.166-.8.368 0 .203-.54.487-1.2.632-.66.145-1.2.429-1.2.632 0 .202-.36.368-.8.368-.44 0-.8.166-.8.368 0 .203-.54.487-1.2.632-.66.145-1.2.429-1.2.632 0 .202-.36.368-.8.368-.44 0-.8.16-.8.357 0 .196-.484.478-1.076.626-.592.149-1.378.618-1.747 1.043-.368.425-1.234.885-1.923 1.023-.69.138-1.254.409-1.254.601 0 .193-.27.35-.6.35-.33 0-.6.177-.6.392 0 .216-.45.506-1 .644s-1 .411-1 .607c0 .197-.27.357-.6.357-.33 0-.6.177-.6.392 0 .216-.45.506-1 .644s-1 .411-1 .607c0 .197-.248.357-.551.357-.303 0-.775.27-1.049.6-.274.33-.824.6-1.222.6s-.838.36-.978.8c-.14.442-.605.8-1.04.8-.432 0-.889.27-1.015.6-.127.33-.49.6-.807.6-.317 0-.993.45-1.503 1-.51.55-1.131 1-1.381 1s-.454.168-.454.373-.39.497-.866.648c-.476.151-1.295.703-1.818 1.227-.524.524-1.171.952-1.439.952s-.825.45-1.238 1c-.413.55-.963 1-1.223 1-.259 0-.852.405-1.316.9-1.07 1.14-1.995 1.9-2.314 1.9-.137 0-.962.72-1.833 1.6-.871.88-1.761 1.6-1.978 1.6-.217 0-1.718 1.35-3.337 3-1.618 1.65-3.111 3-3.318 3-.207 0-.756.405-1.22.9a32.883 32.883 0 01-1.372 1.381c-.291.264-.744.714-1.009 1-.264.285-.714.735-1 1a25 25 0 00-1.008 1 54.775 54.775 0 01-2.411 2.411c-.495.469-.9 1.021-.9 1.228 0 .207-1.35 1.7-3 3.318-1.65 1.619-3 3.12-3 3.337 0 .217-.72 1.107-1.6 1.978-.88.871-1.6 1.696-1.6 1.833 0 .319-.76 1.244-1.9 2.314-.495.464-.9 1.057-.9 1.316 0 .26-.45.81-1 1.223-.55.413-1 .97-1 1.238s-.428.915-.952 1.439c-.524.523-1.076 1.342-1.227 1.818-.151.476-.443.866-.648.866-.205 0-.373.204-.373.454s-.45.871-1 1.381-1 1.186-1 1.503c0 .317-.27.68-.6.807-.33.126-.6.583-.6 1.015 0 .435-.358.9-.8 1.04-.44.14-.8.58-.8.978s-.27.948-.6 1.222c-.33.274-.6.746-.6 1.049 0 .303-.16.551-.357.551-.196 0-.469.45-.607 1s-.428 1-.644 1c-.215 0-.392.27-.392.6 0 .33-.16.6-.357.6-.196 0-.469.45-.607 1s-.428 1-.644 1c-.215 0-.392.27-.392.6 0 .33-.166.6-.368.6-.203 0-.497.585-.654 1.3-.157.715-.607 1.525-1 1.8-.393.276-.833 1.041-.978 1.7-.145.66-.429 1.2-.632 1.2-.202 0-.368.27-.368.6 0 .33-.16.6-.355.6-.196 0-.474.63-.619 1.4-.144.77-.434 1.4-.644 1.4-.21 0-.382.27-.382.6 0 .33-.16.6-.355.6-.196 0-.474.63-.619 1.4-.144.77-.392 1.4-.55 1.4-.403 0-1.676 3.039-1.676 4.003 0 .438-.18.797-.4.797-.22 0-.4.27-.4.6 0 .33-.178.6-.395.6-.218 0-.511.72-.651 1.6-.141.88-.413 1.6-.605 1.6s-.349.36-.349.8c0 .44-.157.8-.349.8-.192 0-.464.72-.605 1.6-.14.88-.433 1.6-.651 1.6-.217 0-.395.45-.395 1s-.16 1-.355 1c-.196 0-.478.652-.628 1.449-.149.797-.468 1.832-.707 2.3-.97 1.897-1.105 2.281-1.355 3.842-.143.895-.416 1.723-.608 1.841-.191.119-.347.745-.347 1.392 0 .647-.163 1.176-.362 1.176-.2 0-.487.9-.638 2-.151 1.1-.438 2-.638 2-.199 0-.362.63-.362 1.4 0 .77-.166 1.4-.368 1.4-.203 0-.494 1.17-.647 2.6-.153 1.43-.437 2.6-.632 2.6-.194 0-.353.619-.353 1.376 0 .757-.168 1.481-.373 1.607-.205.127-.499 1.668-.652 3.424-.153 1.756-.435 3.193-.627 3.193-.191 0-.348.799-.348 1.776s-.16 1.876-.356 1.997c-.196.121-.487 2.246-.648 4.723-.168 2.605-.482 4.624-.744 4.789-.646.408-.643 45.957.004 46.753.25.309.585 2.587.744 5.062.158 2.475.448 4.5.644 4.5s.356.9.356 2 .154 2 .343 2c.188 0 .463 1.301.611 2.891.148 1.59.443 3.066.657 3.28.214.214.389 1.073.389 1.909 0 .836.166 1.52.368 1.52.203 0 .494 1.17.647 2.6.153 1.43.437 2.6.632 2.6.194 0 .353.529.353 1.176 0 .647.163 1.278.363 1.401.199.123.486 1.124.637 2.223.151 1.1.438 2 .638 2 .199 0 .362.54.362 1.2 0 .66.163 1.2.362 1.2.2 0 .487.9.638 2 .151 1.1.438 2 .638 2 .199 0 .362.45.362 1s.16 1 .355 1c.195 0 .476.81.624 1.8.149.99.439 1.8.646 1.8.206 0 .375.45.375 1s.178 1 .395 1c.218 0 .511.72.651 1.6.141.88.413 1.6.605 1.6s.349.27.349.6c0 .33.16.6.355.6.195 0 .476.81.624 1.8.149.99.439 1.8.646 1.8.206 0 .375.27.375.6 0 .33.157.6.349.6.192 0 .464.72.605 1.6.14.88.433 1.6.651 1.6.217 0 .395.36.395.8 0 .44.166.8.368.8.203 0 .487.54.632 1.2.145.66.429 1.2.632 1.2.202 0 .368.36.368.8 0 .44.166.8.368.8.203 0 .487.54.632 1.2.145.66.429 1.2.632 1.2.202 0 .368.36.368.8 0 .44.16.8.357.8.196 0 .478.484.626 1.076.149.592.618 1.378 1.043 1.747.425.368.885 1.234 1.023 1.923.138.69.408 1.254.601 1.254.192 0 .35.27.35.6 0 .33.177.6.392.6.216 0 .506.45.644 1s.411 1 .607 1c.197 0 .357.27.357.6 0 .33.177.6.392.6.216 0 .506.45.644 1s.411 1 .607 1c.197 0 .357.27.357.6 0 .33.162.6.361.6.198 0 .55.542.781 1.205.231.663.699 1.312 1.039 1.443.34.131.619.584.619 1.007 0 .424.27.874.6 1 .33.127.6.438.6.692 0 .254.45.946 1 1.54.55.593 1 1.266 1 1.496 0 .229.177.417.392.417.216 0 .497.415.624.923.128.508.671 1.253 1.208 1.656.537.403.976 1.056.976 1.45 0 .394.351.828.78.965.428.136.903.636 1.054 1.113.151.476.88 1.453 1.62 2.172.74.719 1.346 1.493 1.346 1.721 0 .228.606 1.002 1.346 1.721.74.719 1.472 1.706 1.627 2.193.154.487.449.886.654.886.205 0 .373.27.373.6 0 .33.177.6.392.6.216 0 .506.45.644 1s.411 1 .607 1c.197 0 .357.27.357.6 0 .33.168.6.373.6s.501.405.657.9c.157.495.593 1.17.97 1.5.377.33.813 1.005.97 1.5.156.495.452.9.657.9.205 0 .373.27.373.6 0 .33.168.6.373.6s.499.405.654.9c.154.495.392.99.527 1.1.359.292 1.188 1.661 1.641 2.71.216.501.666 1.015.999 1.143.333.128.606.579.606 1.002 0 .424.27.874.6 1 .33.127.6.571.6.988 0 .416.177.757.392.757.216 0 .506.45.644 1s.411 1 .607 1c.197 0 .357.27.357.6 0 .33.168.6.373.6s.501.405.657.9c.157.495.574 1.17.927 1.5.354.33.986 1.275 1.406 2.1.42.825.895 1.5 1.057 1.5.161 0 .406.45.544 1s.428 1 .644 1c.215 0 .392.27.392.6 0 .33.177.6.392.6.216 0 .506.45.644 1s.383 1 .544 1c.162 0 .637.675 1.057 1.5.42.825 1.078 1.791 1.463 2.147.385.356.7.946.7 1.312 0 .367.27.77.6.896.33.127.6.571.6.988 0 .416.177.757.392.757.216 0 .506.45.644 1s.411 1 .607 1c.197 0 .357.27.357.6 0 .33.177.6.392.6.216 0 .506.45.644 1s.383 1 .544 1c.162 0 .637.675 1.057 1.5.42.825 1.033 1.77 1.363 2.1.33.33.943 1.275 1.363 2.1.42.825.895 1.5 1.057 1.5.161 0 .406.45.544 1s.428 1 .644 1c.215 0 .392.36.392.8 0 .44.177.8.392.8.216 0 .506.45.644 1s.411 1 .607 1c.197 0 .357.27.357.6 0 .33.177.6.392.6.216 0 .506.45.644 1s.383 1 .544 1c.162 0 .637.675 1.057 1.5.42.825 1.033 1.77 1.363 2.1.33.33.943 1.275 1.363 2.1.42.825.915 1.5 1.1 1.5.185 0 .337.366.337.813 0 .446.27.916.6 1.042.33.127.6.571.6.988 0 .416.16.757.357.757.196 0 .469.45.607 1s.428 1 .644 1c.215 0 .392.27.392.6 0 .33.16.6.357.6.196 0 .469.45.607 1s.428 1 .644 1c.215 0 .392.27.392.6 0 .33.177.6.392.6.216 0 .506.45.644 1s.411 1 .607 1c.197 0 .357.248.357.551 0 .303.27.775.6 1.049.33.274.6.836.6 1.249 0 .413.152.751.337.751.185 0 .68.67 1.1 1.489.42.819 1.085 1.85 1.478 2.292.394.442.819 1.212.944 1.711.125.499.372.908.549.908.176 0 .706.795 1.176 1.768.471.972 1.099 1.969 1.397 2.216.297.247.66.926.807 1.509.146.583.588 1.34.982 1.683.393.343.857 1.074 1.03 1.624.173.55.637 1.281 1.03 1.624.394.343.839 1.112.989 1.709.15.597.583 1.306.962 1.576s.802.945.939 1.499c.137.554.609 1.394 1.048 1.866.44.472.916 1.323 1.059 1.892.143.569.395 1.034.56 1.034.164 0 .75.855 1.301 1.9 2.083 3.952 2.52 4.704 2.812 4.833.165.074.3.389.3.7 0 .312.177.567.392.567.216 0 .506.45.644 1s.371 1 .518 1c.147 0 .622.808 1.056 1.796.435.988.925 1.798 1.09 1.8.165.002.3.274.3.604 0 .33.16.6.357.6.196 0 .469.45.607 1s.428 1 .644 1c.215 0 .392.27.392.6 0 .33.18.6.4.6.22 0 .4.338.4.751s.27.975.6 1.249c.33.274.6.746.6 1.049 0 .303.166.551.368.551.203 0 .487.54.632 1.2.145.66.408 1.2.584 1.2s.837 1.035 1.467 2.3c.631 1.265 1.372 2.538 1.648 2.829.275.29.501.785.501 1.1 0 .314.18.571.4.571.22 0 .4.27.4.6 0 .33.135.602.3.604.165.002.655.812 1.09 1.8.434.988.915 1.796 1.068 1.796.153 0 .397.54.542 1.2.145.66.389 1.2.542 1.2.153 0 .634.808 1.068 1.796.435.988.925 1.798 1.09 1.8.165.002.3.274.3.604 0 .33.16.6.357.6.196 0 .473.465.616 1.034.143.569.603 1.403 1.023 1.854.42.451.877 1.336 1.016 1.966.138.63.417 1.146.62 1.146.202 0 .368.27.368.6 0 .33.16.6.357.6.196 0 .475.473.62 1.051.145.579.705 1.701 1.244 2.493.538.793.979 1.67.979 1.949 0 .279.18.507.4.507.22 0 .4.36.4.8 0 .44.16.8.357.8.196 0 .48.493.631 1.096.152.603.398 1.188.548 1.3.15.112.787 1.239 1.416 2.504.629 1.265 1.294 2.3 1.478 2.3.183 0 .452.63.596 1.4.145.77.423 1.4.619 1.4.195 0 .355.27.355.6 0 .33.172.6.382.6.21 0 .5.63.644 1.4.145.77.423 1.4.619 1.4.195 0 .355.27.355.6 0 .33.18.6.4.6a.4.4 0 01.4.397c0 .683 1.373 3.603 1.694 3.603.168 0 .306.179.306.397 0 .662 1.368 3.603 1.676 3.603.158 0 .406.63.55 1.4.145.77.423 1.4.619 1.4.195 0 .355.27.355.6 0 .33.166.6.368.6.203 0 .486.536.63 1.191.144.655.697 2.05 1.23 3.1.533 1.05.969 2.134.97 2.409.001.275.14.5.308.5.321 0 1.694 2.92 1.694 3.603a.4.4 0 00.4.397c.22 0 .4.36.4.8 0 .44.164.8.365.8.201 0 .486.72.635 1.6.149.88.434 1.6.635 1.6s.365.27.365.6c0 .33.164.6.365.6.201 0 .486.72.635 1.6.149.88.434 1.6.635 1.6s.365.36.365.8c0 .44.172.8.382.8.21 0 .5.63.644 1.4.145.77.423 1.4.619 1.4.195 0 .355.349.355.776 0 .427.16.876.356.997.195.121.475.716.622 1.323.367 1.52 1.164 3.304 1.475 3.304.142 0 .38.652.53 1.449.257 1.373.928 2.912 1.459 3.351.134.11.367.875.518 1.7.152.825.448 1.5.658 1.5.21 0 .382.45.382 1s.18 1 .4 1c.22 0 .4.378.4.84 0 .755.692 2.656 1.606 4.411.187.358.462 1.303.611 2.1.15.797.432 1.449.628 1.449.195 0 .355.45.355 1s.163 1 .362 1c.2 0 .487.9.638 2 .151 1.1.438 2 .638 2 .199 0 .362.45.362 1s.163 1 .362 1c.2 0 .487.9.638 2 .151 1.1.438 2 .638 2 .199 0 .362.45.362 1s.163 1 .362 1c.2 0 .487.9.638 2 .151 1.099.438 2.1.637 2.223.2.123.363.653.363 1.177s.159 1.051.353 1.171c.195.12.477 1.211.629 2.424.152 1.213.443 2.205.647 2.205.204 0 .371.619.371 1.376 0 .757.166 1.479.369 1.605.202.125.494 1.398.647 2.829.153 1.431.437 2.699.631 2.819.194.12.353.928.353 1.795 0 .867.164 1.576.364 1.576.2 0 .478 1.575.618 3.5s.426 3.813.636 4.195c.21.382.382 2.011.382 3.62 0 5.494 1.748 6.992 2.2 1.885.156-1.76.445-3.2.642-3.2s.358-.709.358-1.576c0-.867.162-1.677.359-1.799.198-.122.486-1.483.641-3.023.155-1.541.443-2.802.641-2.802.197 0 .359-.619.359-1.376 0-.757.159-1.475.353-1.595.194-.12.478-1.39.632-2.823.153-1.433.444-2.606.647-2.606.202 0 .368-.529.368-1.176 0-.647.162-1.277.361-1.4.198-.122.486-1.303.639-2.623.153-1.321.441-2.401.639-2.401.199 0 .361-.529.361-1.176 0-.647.163-1.278.363-1.401.199-.123.486-1.123.637-2.223.151-1.1.438-2.1.637-2.223.2-.123.363-.653.363-1.177s.167-1.056.372-1.183c.205-.126.495-1.217.646-2.423.151-1.207.433-2.194.628-2.194s.354-.45.354-1 .163-1 .362-1c.2 0 .487-.9.638-2 .151-1.1.438-2 .638-2 .199 0 .362-.45.362-1s.163-1 .362-1c.2 0 .487-.9.638-2 .151-1.1.438-2 .638-2 .199 0 .362-.45.362-1s.163-1 .362-1c.2 0 .487-.9.638-2 .151-1.1.438-2 .638-2 .199 0 .362-.45.362-1s.16-1 .355-1c.196 0 .478-.652.628-1.449.149-.797.439-1.787.644-2.2l.746-1.502c.205-.413.495-1.403.644-2.2.15-.797.432-1.449.628-1.449.195 0 .355-.45.355-1s.178-1 .395-1c.218 0 .511-.72.651-1.6.141-.88.413-1.6.605-1.6s.349-.36.349-.8c0-.44.164-.8.365-.8.201 0 .486-.72.635-1.6.149-.88.434-1.6.635-1.6s.365-.45.365-1 .172-1 .382-1c.21 0 .506-.675.658-1.5.151-.825.394-1.59.539-1.7.498-.379 1.621-3.122 1.621-3.96 0-.462.18-.84.4-.84.22 0 .4-.27.4-.6 0-.33.18-.6.4-.6.22 0 .401-.315.402-.7.002-.385.272-1.216.6-1.846.329-.63.598-1.395.598-1.7 0-.305.166-.554.368-.554.203 0 .487-.54.632-1.2.145-.66.429-1.2.632-1.2.202 0 .368-.36.368-.8 0-.44.172-.8.382-.8.21 0 .5-.63.644-1.4.145-.77.423-1.4.619-1.4.195 0 .355-.36.355-.8 0-.44.16-.8.355-.8.196 0 .474-.63.619-1.4.144-.77.434-1.4.644-1.4.21 0 .382-.27.382-.6 0-.33.16-.6.355-.6.196 0 .474-.63.619-1.4.144-.77.434-1.4.644-1.4.21 0 .382-.27.382-.6 0-.33.16-.6.355-.6.196 0 .474-.63.619-1.4.144-.77.434-1.4.644-1.4.21 0 .382-.27.382-.6 0-.33.16-.6.355-.6.196 0 .474-.63.619-1.4.144-.77.413-1.4.596-1.4.184 0 .849-1.035 1.478-2.3s1.266-2.392 1.416-2.504c.15-.112.396-.697.548-1.3.151-.603.435-1.096.631-1.096.197 0 .357-.36.357-.8 0-.44.18-.8.4-.8.22 0 .401-.225.402-.5.001-.275.54-1.31 1.198-2.3.658-.99 1.197-2.115 1.198-2.5.001-.385.182-.7.402-.7.22 0 .4-.27.4-.6 0-.33.166-.6.368-.6.203 0 .497-.585.654-1.3.157-.714.609-1.58 1.005-1.923.396-.344.841-1.109.99-1.701.148-.592.43-1.076.626-1.076.197 0 .357-.27.357-.6 0-.33.135-.602.3-.604.165-.002.655-.812 1.09-1.8.434-.988.915-1.796 1.068-1.796.153 0 .397-.54.542-1.2.145-.66.389-1.2.542-1.2.153 0 .634-.808 1.068-1.796.435-.988.925-1.798 1.09-1.8.165-.002.3-.274.3-.604 0-.33.18-.6.4-.6.22 0 .4-.228.4-.507s.425-1.134.944-1.9c.518-.766 1.08-1.829 1.248-2.362.168-.533.651-1.34 1.072-1.792.422-.453.87-1.232.995-1.731.125-.499.388-.908.584-.908.197 0 .357-.36.357-.8 0-.44.177-.8.392-.8.216 0 .506-.45.644-1s.411-1 .607-1c.197 0 .357-.27.357-.6 0-.33.16-.6.357-.6.196 0 .469-.45.607-1s.428-1 .644-1c.215 0 .392-.27.392-.6 0-.33.18-.6.4-.6.22 0 .4-.347.4-.771 0-.425.27-1.042.6-1.372.33-.33.6-.793.6-1.028 0-.236.16-.429.357-.429.196 0 .478-.484.626-1.076.149-.592.606-1.368 1.017-1.724.411-.356.878-1.177 1.038-1.824.16-.647.602-1.397.981-1.667s.812-.979.962-1.576c.15-.597.595-1.366.989-1.709.393-.343.853-1.06 1.022-1.593.168-.533.651-1.34 1.072-1.792.422-.453.879-1.271 1.017-1.818.137-.547.587-1.357 1-1.8.412-.443.853-1.214.978-1.713.125-.499.36-.908.521-.908.162 0 .637-.67 1.057-1.489.42-.819 1.085-1.85 1.478-2.292.394-.442.828-1.257.965-1.811s.56-1.229.939-1.499c.379-.27.812-.979.962-1.576.15-.597.595-1.366.989-1.709.393-.343.833-.997.977-1.453.144-.457.575-1.182.958-1.611.382-.43 1.038-1.452 1.458-2.271.42-.819.915-1.489 1.1-1.489.185 0 .337-.338.337-.751s.27-.975.6-1.249c.33-.274.6-.746.6-1.049 0-.303.16-.551.357-.551.196 0 .469-.45.607-1s.428-1 .644-1c.215 0 .392-.27.392-.6 0-.33.177-.6.392-.6.216 0 .506-.45.644-1s.411-1 .607-1c.197 0 .357-.27.357-.6 0-.33.168-.6.373-.6s.497-.391.649-.869c.152-.478.626-1.243 1.054-1.7.429-.457.877-1.314.996-1.905.12-.591.444-1.162.722-1.268.277-.107.903-1.018 1.39-2.026.488-1.007 1.032-1.832 1.208-1.832.177 0 .434-.45.572-1 .138-.55.428-1 .644-1 .215 0 .392-.27.392-.6 0-.33.177-.6.392-.6.216 0 .506-.45.644-1s.411-1 .607-1c.197 0 .357-.27.357-.6 0-.33.168-.6.373-.6s.501-.405.657-.9c.157-.495.574-1.17.927-1.5.354-.33.986-1.275 1.406-2.1.42-.825.915-1.5 1.1-1.5.185 0 .337-.366.337-.813 0-.446.27-.916.6-1.042.33-.127.6-.571.6-.988 0-.416.177-.757.392-.757.216 0 .506-.45.644-1s.383-1 .544-1c.162 0 .637-.675 1.057-1.5.42-.825 1.052-1.77 1.406-2.1.353-.33.77-1.005.927-1.5.156-.495.452-.9.657-.9.205 0 .373-.27.373-.6 0-.33.177-.6.392-.6.216 0 .506-.45.644-1s.383-1 .544-1c.162 0 .637-.675 1.057-1.5.42-.825 1.052-1.77 1.406-2.1.353-.33.77-1.005.927-1.5.156-.495.452-.9.657-.9.205 0 .373-.27.373-.6 0-.33.177-.6.392-.6.216 0 .506-.45.644-1s.373-1 .523-1c.15 0 .799-.9 1.441-2s1.291-2 1.441-2c.15 0 .385-.45.523-1s.428-1 .644-1c.215 0 .392-.341.392-.757 0-.417.27-.861.6-.988.33-.126.6-.583.6-1.015 0-.435.358-.9.8-1.04.442-.14.8-.605.8-1.04 0-.432.27-.889.6-1.015.33-.127.6-.552.6-.945 0-.393.27-.818.6-.945.33-.126.6-.576.6-1 0-.423.273-.874.606-1.002.333-.128.779-.687.99-1.243.211-.555.569-1.01.794-1.01.226 0 .41-.341.41-.757 0-.417.27-.861.6-.988.33-.126.6-.576.6-1 0-.423.273-.874.606-1.002.333-.128.783-.642.999-1.143.585-1.354 1.332-2.47 1.895-2.83.275-.176.5-.659.5-1.073 0-.414.351-.864.78-1.001.428-.136.887-.589 1.02-1.006.133-.417.592-.87 1.02-1.006.429-.137.78-.534.78-.883s.72-1.32 1.6-2.157c.88-.837 1.6-1.712 1.6-1.945 0-.233.606-1.011 1.346-1.73.74-.719 1.469-1.696 1.62-2.172.151-.477.626-.977 1.054-1.113.429-.137.78-.571.78-.965s.439-1.047.976-1.45c.537-.403 1.08-1.148 1.208-1.656.127-.508.408-.923.624-.923.215 0 .392-.188.392-.417 0-.23.45-.903 1-1.496.55-.594 1-1.286 1-1.54s.27-.565.6-.692c.33-.126.6-.576.6-1 0-.423.279-.876.619-1.007.34-.131.808-.78 1.039-1.443.231-.663.583-1.205.781-1.205.199 0 .361-.27.361-.6 0-.33.16-.6.357-.6.196 0 .469-.45.607-1s.428-1 .644-1c.215 0 .392-.27.392-.6 0-.33.16-.6.357-.6.196 0 .469-.45.607-1s.428-1 .644-1c.215 0 .392-.27.392-.6 0-.33.157-.6.35-.6.193 0 .463-.564.601-1.254.138-.689.598-1.555 1.023-1.923.425-.369.894-1.155 1.043-1.747.148-.592.43-1.076.626-1.076.197 0 .357-.36.357-.8 0-.44.166-.8.368-.8.203 0 .487-.54.632-1.2.145-.66.429-1.2.632-1.2.202 0 .368-.36.368-.8 0-.44.166-.8.368-.8.203 0 .487-.54.632-1.2.145-.66.429-1.2.632-1.2.202 0 .368-.36.368-.8 0-.44.178-.8.395-.8.218 0 .511-.72.651-1.6.141-.88.413-1.6.605-1.6s.349-.27.349-.6c0-.33.169-.6.375-.6.207 0 .497-.81.646-1.8.148-.99.429-1.8.624-1.8s.355-.27.355-.6c0-.33.157-.6.349-.6.192 0 .464-.72.605-1.6.14-.88.433-1.6.651-1.6.217 0 .395-.45.395-1s.169-1 .375-1c.207 0 .497-.81.646-1.8.148-.99.429-1.8.624-1.8s.355-.45.355-1 .163-1 .362-1c.2 0 .487-.9.638-2 .151-1.1.438-2 .638-2 .199 0 .362-.54.362-1.2 0-.66.163-1.2.362-1.2.2 0 .487-.9.638-2 .151-1.099.438-2.1.637-2.223.2-.123.363-.754.363-1.401s.159-1.176.353-1.176c.195 0 .479-1.17.632-2.6.153-1.43.444-2.6.647-2.6.202 0 .368-.684.368-1.52s.175-1.695.389-1.909c.214-.214.509-1.69.657-3.28.148-1.59.423-2.891.611-2.891.189 0 .343-.9.343-2s.16-2 .356-2c.196 0 .488-2.025.648-4.5.168-2.602.482-4.62.744-4.785.328-.207.452-6.671.452-23.515s-.124-23.308-.452-23.515c-.262-.165-.576-2.184-.744-4.789-.161-2.477-.452-4.602-.648-4.723-.196-.121-.356-1.02-.356-1.997 0-.977-.157-1.776-.348-1.776-.192 0-.474-1.437-.627-3.193-.153-1.756-.447-3.297-.652-3.424-.205-.126-.373-.85-.373-1.607s-.159-1.376-.353-1.376c-.195 0-.479-1.17-.632-2.6-.153-1.43-.444-2.6-.647-2.6-.202 0-.368-.63-.368-1.4 0-.77-.163-1.4-.362-1.4-.2 0-.487-.9-.638-2-.151-1.1-.438-2-.638-2-.199 0-.362-.529-.362-1.176 0-.647-.156-1.273-.347-1.392-.192-.118-.465-.946-.608-1.841-.143-.894-.437-1.978-.653-2.408l-.765-1.534c-.205-.413-.495-1.403-.644-2.2-.15-.797-.432-1.449-.628-1.449-.195 0-.355-.45-.355-1s-.178-1-.395-1c-.218 0-.511-.72-.651-1.6-.141-.88-.413-1.6-.605-1.6s-.349-.36-.349-.8c0-.44-.157-.8-.349-.8-.192 0-.464-.72-.605-1.6-.14-.88-.433-1.6-.651-1.6-.217 0-.395-.27-.395-.6 0-.33-.18-.6-.4-.6-.22 0-.4-.359-.4-.797 0-.964-1.273-4.003-1.676-4.003-.158 0-.406-.63-.55-1.4-.145-.77-.423-1.4-.619-1.4-.195 0-.355-.27-.355-.6 0-.33-.172-.6-.382-.6-.21 0-.5-.63-.644-1.4-.145-.77-.423-1.4-.619-1.4-.195 0-.355-.27-.355-.6 0-.33-.166-.6-.368-.6-.203 0-.487-.54-.632-1.2-.145-.659-.585-1.424-.978-1.7-.393-.275-.843-1.085-1-1.8-.157-.715-.451-1.3-.654-1.3-.202 0-.368-.27-.368-.6 0-.33-.177-.6-.392-.6-.216 0-.506-.45-.644-1s-.411-1-.607-1c-.197 0-.357-.27-.357-.6 0-.33-.177-.6-.392-.6-.216 0-.506-.45-.644-1s-.411-1-.607-1c-.197 0-.357-.248-.357-.551 0-.303-.27-.775-.6-1.049-.33-.274-.6-.824-.6-1.222s-.36-.838-.8-.978c-.442-.14-.8-.605-.8-1.04 0-.432-.27-.889-.6-1.015-.33-.127-.6-.49-.6-.807 0-.317-.45-.993-1-1.503-.55-.51-1-1.131-1-1.381s-.168-.454-.373-.454-.497-.39-.648-.866c-.151-.476-.703-1.295-1.227-1.818-.524-.524-.952-1.171-.952-1.439s-.45-.825-1-1.238c-.55-.413-1-1.074-1-1.468 0-.394-.351-.828-.78-.965-.428-.136-.89-.598-1.026-1.026-.137-.429-.416-.78-.621-.78-.205 0-.373-.194-.373-.431 0-.238-.72-1.145-1.6-2.016-.88-.871-1.6-1.761-1.6-1.978 0-.217-1.35-1.718-3-3.337-1.65-1.618-3-3.111-3-3.318 0-.207-.405-.756-.9-1.22a32.883 32.883 0 01-1.381-1.372 19.833 19.833 0 00-1-1.009 22.453 22.453 0 01-1-1 25 25 0 00-1-1.008 54.775 54.775 0 01-2.411-2.411c-.469-.495-1.021-.9-1.228-.9-.207 0-1.7-1.35-3.318-3-1.619-1.65-3.12-3-3.337-3-.217 0-1.107-.72-1.978-1.6-.871-.88-1.778-1.6-2.016-1.6-.237 0-.431-.168-.431-.373s-.351-.484-.78-.621c-.428-.136-.89-.598-1.026-1.026-.137-.429-.571-.78-.965-.78s-1.055-.45-1.468-1c-.413-.55-.97-1-1.238-1s-.915-.428-1.439-.952c-.523-.524-1.342-1.076-1.818-1.227-.476-.151-.866-.443-.866-.648 0-.205-.204-.373-.454-.373s-.871-.45-1.381-1-1.186-1-1.503-1c-.317 0-.68-.27-.807-.6-.126-.33-.583-.6-1.015-.6-.435 0-.9-.358-1.04-.8-.14-.44-.58-.8-.978-.8s-.948-.27-1.222-.6c-.274-.33-.746-.6-1.049-.6-.303 0-.551-.16-.551-.357 0-.196-.45-.469-1-.607s-1-.428-1-.644c0-.215-.27-.392-.6-.392-.33 0-.6-.16-.6-.357 0-.196-.45-.469-1-.607s-1-.428-1-.644c0-.215-.27-.392-.6-.392-.33 0-.6-.157-.6-.35 0-.193-.564-.463-1.254-.601-.689-.138-1.555-.598-1.923-1.023-.369-.425-1.155-.894-1.747-1.043-.592-.148-1.076-.43-1.076-.626 0-.197-.36-.357-.8-.357-.44 0-.8-.166-.8-.368 0-.203-.54-.487-1.2-.632-.66-.145-1.2-.429-1.2-.632 0-.202-.36-.368-.8-.368-.44 0-.8-.166-.8-.368 0-.203-.54-.487-1.2-.632-.66-.145-1.2-.429-1.2-.632 0-.202-.36-.368-.8-.368-.44 0-.8-.178-.8-.395 0-.218-.72-.511-1.6-.651-.88-.141-1.6-.413-1.6-.605s-.27-.349-.6-.349c-.33 0-.6-.169-.6-.375 0-.207-.81-.497-1.8-.646-.99-.148-1.8-.429-1.8-.624s-.27-.355-.6-.355c-.33 0-.6-.157-.6-.349 0-.192-.72-.464-1.6-.605-.88-.14-1.6-.433-1.6-.651 0-.217-.45-.395-1-.395s-1-.169-1-.375c0-.207-.81-.497-1.8-.646-.99-.148-1.8-.429-1.8-.624s-.45-.355-1-.355-1-.163-1-.362c0-.2-.9-.487-2-.638-1.1-.151-2-.438-2-.638 0-.199-.54-.362-1.2-.362-.66 0-1.2-.163-1.2-.362 0-.2-.9-.487-2-.638-1.1-.151-2-.438-2-.638 0-.199-.63-.362-1.4-.362-.77 0-1.4-.159-1.4-.353 0-.195-1.17-.479-2.6-.632-1.43-.153-2.6-.444-2.6-.647 0-.202-.552-.368-1.226-.368-.675 0-1.558-.177-1.962-.394-.405-.216-2.013-.512-3.574-.657-1.561-.145-2.838-.418-2.838-.606 0-.189-.9-.343-2-.343s-2-.16-2-.356c0-.196-2.025-.488-4.5-.648-2.475-.16-4.623-.485-4.772-.722-.272-.43-35.159-.752-43.428-.401m32.611 27.114c9.674.964 16.016 2.144 18.401 3.422.812.435 1.839.795 2.282.8 1.37.016 11.884 2.942 17.029 4.739 5.963 2.083 8.028 2.871 12.144 4.631 5.371 2.297 16.122 7.699 17.671 8.878.681.519 1.391.943 1.579.943.43 0 9.126 5.665 11.973 7.8 4.763 3.571 8.498 6.561 10.04 8.039.896.858 2.385 2.094 3.309 2.745 2.376 1.674 13.721 13.267 15.036 15.364.603.962 2.139 2.87 3.415 4.241 1.275 1.371 2.544 2.914 2.82 3.429.276.516 1.466 2.074 2.644 3.464 1.179 1.389 2.682 3.48 3.34 4.646.658 1.165 1.618 2.486 2.135 2.935 1.143.994 6.104 9.473 6.51 11.126.161.654.892 2.184 1.626 3.4.733 1.216 1.333 2.356 1.334 2.532.001.177 1.251 3.147 2.778 6.6 3.796 8.583 7.259 18.893 9.029 26.879.366 1.65.997 4.17 1.402 5.6 2.763 9.75 4.19 28.987 3.189 43-2.58 36.103-16.269 69.829-39.209 96.6-3.597 4.198-19.514 19.63-22.917 22.219-14.223 10.821-21.721 15.286-39.071 23.266-2.514 1.156-12.131 4.615-16 5.755-1.43.422-3.14.938-3.8 1.147-4.077 1.295-17.361 4.196-22 4.805-46.087 6.053-90.966-6.786-127.433-36.457-5.691-4.63-20.428-19.62-24.792-25.219-12.442-15.959-19.906-29.509-26.174-47.516-.727-2.09-1.974-6.14-2.771-9-.796-2.86-1.881-6.73-2.411-8.6-5.599-19.745-5.892-53.062-.638-72.324.401-1.472 1.213-4.476 1.804-6.676 4.556-16.961 14.079-38.903 20.327-46.835.708-.9 2.599-3.51 4.202-5.8 4.032-5.763 5.512-7.688 8.286-10.782 1.32-1.472 2.916-3.403 3.548-4.291 1.656-2.33 13.521-13.877 15.541-15.125.941-.581 2.701-2.006 3.911-3.167s2.92-2.584 3.8-3.162a62.642 62.642 0 003.271-2.345c6.745-5.221 19.119-12.5 27.017-15.891a218.372 218.372 0 005.097-2.303c3.662-1.712 13.748-5.378 18.615-6.766 4.801-1.368 9.459-2.522 10.206-2.528.333-.003 1.27-.361 2.082-.796 5.922-3.174 33.387-5.06 49.823-3.422m-24.787 7.222c-.13.13-2.551.411-5.38.624-26.769 2.014-58.725 14.18-79.544 30.283-1.1.851-2.63 1.937-3.4 2.414-.77.477-2.03 1.51-2.8 2.297-.77.787-2.57 2.215-4 3.174-2.682 1.798-14.4 13.295-14.4 14.128 0 .258-1.235 1.774-2.745 3.37-1.51 1.595-3.038 3.474-3.396 4.174-.358.7-1.687 2.493-2.953 3.985-2.057 2.425-2.871 3.611-5.807 8.459-.439.724-.701 1.415-.581 1.534.338.339 12.935-.616 16.282-1.234 6.355-1.173 7.913-1.482 11.4-2.263 5.943-1.33 14.02-3.549 17.2-4.725 9.458-3.498 11.578-4.345 14.246-5.692 1.676-.845 3.206-1.538 3.4-1.539.195-.002.804-.248 1.354-.548.55-.3 2.98-1.617 5.4-2.927 6.739-3.646 9.908-5.636 16.282-10.219 9.272-6.667 8.826-6.31 14.918-11.967 1.54-1.431 3.466-3.001 4.28-3.489.814-.489 1.875-1.554 2.358-2.368.484-.814 2.633-3.28 4.778-5.48 2.144-2.2 4.352-4.72 4.907-5.6.555-.88 1.656-2.32 2.448-3.2 1.208-1.344 7.249-12.381 7.115-13-.068-.311-1.097-.455-1.362-.191m13.676.246c0 .647 3.235 5.996 5.273 8.718.73.975 1.831 2.505 2.447 3.4.616.895 2.881 3.517 5.033 5.827 2.153 2.31 4.4 4.971 4.994 5.914.594.942 2.019 2.322 3.167 3.066 1.147.743 3.616 2.91 5.486 4.815 1.87 1.904 3.893 3.723 4.496 4.042.602.318 2.036 1.414 3.186 2.435 1.149 1.021 3.562 2.806 5.361 3.967 1.8 1.161 3.876 2.63 4.615 3.264.738.634 2.782 1.93 4.542 2.88 1.76.95 3.66 2.05 4.223 2.445.931.652 2.309 1.423 6.977 3.901 14.607 7.754 34.2 13.725 52.8 16.091 4.708.599 14.982 1.331 15.227 1.086.583-.582-3.736-6.778-9.832-14.106-1.464-1.76-3.123-3.92-3.687-4.8-1.194-1.864-12.75-13.4-13.423-13.4-.251 0-1.658-1.125-3.128-2.5-1.47-1.375-3.453-3.04-4.406-3.7a169.38 169.38 0 01-4.042-2.926C271.467 50.736 246.798 40.49 221.8 36.57c-3.52-.552-7.165-1.175-8.1-1.385-3.299-.741-12.1-.981-12.1-.33m-7.821 9.026c-1.986 2.829-4.378 7.636-5.775 11.607-2.432 6.917-4.075 12.17-4.982 15.935-.559 2.321-1.199 4.561-1.422 4.977-.917 1.714-2.304 11.42-3.201 22.4-.706 8.637.034 30.108 1.199 34.8.191.77.652 3.47 1.024 6s1.001 5.68 1.399 7c.398 1.32.84 3.03.984 3.8 1.712 9.187 11.848 34.294 13.693 33.918.731-.149 2.398-3.296 4.724-8.918 1.001-2.42 2.157-5.21 2.569-6.2 1.309-3.149 4.431-12.919 4.841-15.154.218-1.185.754-3.217 1.191-4.515 1.334-3.961 1.983-7.329 2.63-13.665.341-3.336.816-7.956 1.056-10.266 1.113-10.708.363-26.08-1.834-37.6-.314-1.65-.875-4.8-1.245-7-1.705-10.132-6.573-24.493-12.06-35.579-2.418-4.883-2.439-4.89-4.791-1.54M213.6 63.924c0 .466.335 1.708.745 2.761 1.134 2.914 4.339 17.914 5.281 24.715 1.418 10.236 1.829 27.393.871 36.4-1.669 15.701-2.318 19.853-3.688 23.616-.404 1.108-.865 2.908-1.024 4-.159 1.091-.643 2.941-1.076 4.112-1.251 3.382-.671 3.021 6.405-3.983 3.678-3.639 7.645-7.286 8.818-8.103 1.172-.817 2.672-2.102 3.334-2.856.661-.753 2.223-1.989 3.469-2.747 1.247-.757 2.716-1.858 3.266-2.446.549-.588 1.507-1.333 2.127-1.656.62-.323 2.51-1.58 4.2-2.794 12.071-8.675 34.164-18.382 51.272-22.527 4.454-1.079 5.071-1.462 2.952-1.83-1.997-.347-14.365-3.586-17.752-4.65-6.846-2.15-21.579-8.195-25.4-10.422-.44-.256-1.97-1.127-3.4-1.934-8.183-4.62-19.666-12.127-21.884-14.306-.614-.603-2.286-1.97-3.716-3.038-1.43-1.068-3.745-3.183-5.144-4.701-1.399-1.518-3.103-3.049-3.788-3.403-.685-.354-2.285-1.636-3.556-2.849-1.926-1.836-2.312-2.063-2.312-1.359m-38.506 2.929c-1.048 1.281-2.938 2.986-4.2 3.787-1.262.801-4.216 3.325-6.566 5.609-2.349 2.283-4.462 4.151-4.696 4.151-.233 0-1.403.887-2.6 1.971s-2.594 2.188-3.104 2.453c-.511.264-2.458 1.608-4.328 2.985-4.777 3.518-14.388 9.105-20 11.626-1.21.543-3.46 1.615-5 2.381-1.54.766-4.06 1.858-5.6 2.428-1.54.569-4.24 1.571-6 2.226-2.781 1.036-5.807 1.96-14.8 4.524-1.1.314-2.63.671-3.4.794-3.332.533-3.135 1.245.558 2.018 12.915 2.702 37.12 12.236 45.314 17.849.92.63 1.789 1.145 1.932 1.145.494 0 11.206 7.151 13.589 9.072 1.315 1.06 3.115 2.449 4 3.085.884.636 2.629 2.121 3.877 3.3 1.249 1.179 2.419 2.144 2.6 2.146.182.001 2.823 2.443 5.87 5.427 3.047 2.983 5.616 5.348 5.709 5.255.211-.212-1.304-6.39-2.711-11.047-.425-1.41-.938-3.84-1.138-5.4-.201-1.561-.664-4.278-1.03-6.038-.366-1.76-.824-4.28-1.018-5.6-.421-2.876-1.559-31.06-1.273-31.526.11-.179.35-2.249.533-4.6.857-10.987 2.111-19.03 3.796-24.34 1.032-3.25 2.01-7.669 1.746-7.885-.084-.069-1.012.922-2.06 2.204m14.877 5.401c.456.58.829 1.476.829 1.992 0 1.071.131 1.114 5.312 1.753 3.869.478 4.502.348 3.889-.797-.861-1.608.189-3.605 1.641-3.121.467.155 2.851 7.045 2.586 7.474-.099.16-2.991.006-6.425-.342-7.05-.717-7.167-.694-6.788 1.329.316 1.684-1.082 2.131-2.335.747-.527-.583-.746-7.842-.301-9.989.086-.412.903.078 1.592.954m11.102 14.202c4.951 2.548 4.92 9.847-.047 11.194-8.488 2.302-16.936-5.592-11.458-10.707 2.19-2.045 8-2.291 11.505-.487m-9.773 2.74c-1.271.774-1.572 1.63-1.051 2.988 1.078 2.809 11.654 3.376 12.257.658.728-3.287-7.438-5.944-11.206-3.646m8.486 11.314c.872.257 2.354 1.204 3.292 2.103l1.706 1.635-.247 2.776c-.409 4.594-1.516 5.522-6.559 5.497-6.545-.032-11.43-4.321-9.968-8.751 1.163-3.525 6.179-4.913 11.776-3.26m-6.685 2.658c-3.094.631-4.011 2.796-1.926 4.549 2.414 2.032 9.299 2.198 10.905.263 2.15-2.591-3.918-5.844-8.979-4.812m135.208 11.456c-.123.123-2.628.402-5.567.619-24.449 1.804-52.829 12.095-74.338 26.957-7.838 5.416-8.874 6.186-11.971 8.9-1.57 1.375-3.052 2.5-3.294 2.5-.654 0-13.511 12.81-14.221 14.17-.336.643-1.85 2.479-3.364 4.079-1.515 1.6-2.754 3.076-2.754 3.28 0 .204-1.279 1.968-2.842 3.921-1.562 1.952-3.192 4.18-3.62 4.95-.429.77-1.217 2.12-1.752 3-1.374 2.26-1.365 2.267 2.514 2.006 16.231-1.096 37.302-6.176 50.204-12.105 12.97-5.961 22.601-11.399 30.809-17.395 2.028-1.482 5.107-3.719 6.842-4.972 3.61-2.606 21.783-20.277 23.114-22.475.486-.803 1.654-2.328 2.596-3.39.942-1.061 2.212-2.745 2.824-3.74.611-.995 1.675-2.467 2.364-3.269 1.455-1.696 4.186-6.687 3.846-7.028-.296-.295-1.098-.3-1.39-.008m-138.338 1.63c.456.58.829 1.476.829 1.992 0 1.081.2 1.146 5.351 1.733 3.908.445 4.446.337 3.85-.777-.861-1.608.189-3.605 1.641-3.121.555.185 2.859 7.188 2.473 7.519-.173.149-2.295.041-4.715-.24-4.132-.48-6.899-.683-8.135-.597-.4.028-.467.44-.265 1.637.308 1.823-1.015 2.33-2.32.889-.527-.583-.746-7.842-.301-9.989.086-.412.903.078 1.592.954m-124.671.423c-.715.096-1.3.222-1.3.28 0 .702 4.931 9.292 6.11 10.643.864.99 1.846 2.34 2.184 3 .337.66 1.738 2.37 3.114 3.8 11.451 11.903 17.08 17.413 18.992 18.588 1.21.744 2.74 1.919 3.4 2.61.66.692 1.83 1.641 2.6 2.109.77.469 2.091 1.401 2.936 2.072.844.672 2.681 1.941 4.08 2.821 1.4.88 4.039 2.609 5.865 3.843 1.825 1.234 5.029 3.027 7.119 3.986 2.09.959 4.61 2.231 5.6 2.828 4.36 2.629 16.871 7.414 27.4 10.481 1.1.32 2.966.87 4.146 1.222 1.18.352 2.583.64 3.118.64.534 0 2.089.259 3.454.576 8.412 1.951 25.882 3.863 25.882 2.832 0-1.257-5.523-9.377-10.279-15.116-1.6-1.929-3.169-3.999-3.487-4.6-.795-1.5-11.261-11.777-13.234-12.995-.88-.543-2.32-1.75-3.2-2.682-.88-.931-2.704-2.441-4.053-3.354a98.136 98.136 0 01-4.4-3.18c-2.4-1.873-11.636-7.858-16.347-10.594-.44-.256-2.33-1.215-4.2-2.132s-4.3-2.116-5.4-2.665c-11.536-5.753-27.962-10.791-42.8-13.128-3.52-.555-7.21-1.167-8.2-1.362-2.309-.453-7.421-.747-9.1-.523m270.166 6.254c-3.885 8.864-4.841 11.275-6.454 16.269-3.297 10.212-6.612 23.172-6.612 25.852 0 .854-.198 2.182-.441 2.951-1.972 6.254-1.655 36.059.494 46.397.435 2.09.957 5.027 1.161 6.526.204 1.499.463 2.875.575 3.057.113.182.462 1.476.775 2.874 2.098 9.357 6.022 20.93 9.881 29.143 2.866 6.098 3.349 7 3.755 7 1.313 0 10.087-22.337 11.469-29.2.221-1.1.837-3.374 1.368-5.052 1.626-5.142 1.913-6.95 2.937-18.548.253-2.86.647-6.37.877-7.8.843-5.253-.09-25.937-1.443-32-.319-1.43-.95-4.76-1.401-7.4-2.336-13.664-5.311-22.681-13.29-40.276-1.662-3.666-1.961-3.649-3.651.207m-279.757-2.062c-1.397 1.683-7.062 15.344-9.094 21.931-.509 1.65-1.194 3.72-1.521 4.6-.328.88-.91 3.04-1.294 4.8-.384 1.76-1.025 4.072-1.425 5.139-1.709 4.555-3.725 22.508-3.601 32.061.123 9.377.804 23.172 1.214 24.58.352 1.208 1.225 6.173 1.832 10.42.111.77.541 2.57.957 4a284.2 284.2 0 011.829 6.781c2.144 8.35 5.251 16.553 10.507 27.738 2.327 4.952 2.385 4.959 4.98.592 2.582-4.343 3.755-6.611 4.592-8.872 2.404-6.494 3.136-8.652 4.535-13.372 1.785-6.027 3.022-10.749 3.613-13.795 2.441-12.581 3.326-21.221 3.326-32.472 0-10.88-.783-18.978-2.995-31-2.585-14.05-9.873-33.903-14.925-40.657-.681-.912-1.424-1.968-1.65-2.348-.35-.589-.481-.608-.88-.126M293 134.37c2.89 5.87 3.192 6.167 4.898 4.824 1.174-.923 1.21-.909 1.665.676.451 1.574-.091 2.233-2.884 3.511-1.252.573-2.881 1.572-3.62 2.221-.739.649-1.46 1.064-1.601.922-.609-.609-.199-2.496.735-3.382 1.258-1.193 1.317-.81-.822-5.296-2.136-4.479-2.332-4.668-3.164-3.059-.728 1.406-1.771 1.558-2.811.409-.738-.816-.509-1.332 1.414-3.193.116-.111.807-.969 1.535-1.905 1.66-2.131 1.371-2.396 4.655 4.272m-190.976-4.141c.287.346 1.217.984 2.065 1.417 3.564 1.817 2.562 7.096-2.149 11.332-7.381 6.636-14.883-1.071-8.648-8.884 2.887-3.617 7.312-5.576 8.732-3.865M190 130.8c.44.44.8 1.256.8 1.813 0 1.238.046 1.256 5 1.95 3.982.557 5.285.362 4.28-.643-1.123-1.123-.138-3.349 1.351-3.053.694.138 3.275 6.96 2.81 7.426-.13.129-3.03-.073-6.444-.449-6.939-.765-7.176-.723-6.814 1.207.312 1.664-.501 2.157-1.971 1.194-.96-.629-.979-.746-.896-5.443.089-5.108.31-5.576 1.884-4.002m-90.6 2.169c-4.755 2.128-7.505 10.364-3.46 10.364 3.458 0 8.385-7.356 6.675-9.966-.712-1.087-1.467-1.181-3.215-.398m181.078 9.005c3.272 6.527 3.182 6.428 4.758 5.262 1.486-1.098 2.078-.719 1.893 1.213-.116 1.217-.387 1.484-2.729 2.69-1.43.736-3.173 1.771-3.873 2.3-1.618 1.221-1.727 1.208-1.727-.208 0-.67.436-1.687 1.02-2.382l1.02-1.212-1.863-3.918c-2.28-4.798-2.017-4.553-3.227-3.007-1.169 1.494-1.747 1.596-2.75.488-.706-.78-.684-.849.869-2.7.877-1.045 1.92-2.402 2.318-3.015 1.073-1.651 1.368-1.343 4.291 4.489M113.6 138.437c.77.197 1.884.36 2.476.361 1.816.004 1.683.71-.773 4.119-5.497 7.629-5.531 7.706-3.703 8.343 1.344.468 1.554 1.383.5 2.183-1.053.8-2.309.665-3.569-.384-1.705-1.418-4.44-3.059-5.099-3.059-.971 0-1.204-.884-.393-1.486.741-.55 2.066-.525 3.436.063.757.324.897.183 3.909-3.932 2.335-3.19 2.482-3.845.865-3.845-1.591 0-2.303-.924-1.712-2.221.481-1.055.499-1.056 4.063-.142m199.148 9.023a9261.776 9261.776 0 00-9.613 9.426c-.829.818-2.279 1.964-3.221 2.547-.943.583-2.378 1.695-3.19 2.472-.812.776-2.095 1.79-2.85 2.253-.756.463-2.474 1.652-3.819 2.642-3.17 2.334-6.754 4.696-9.406 6.2-4.701 2.666-12.206 6.623-14.749 7.776-1.485.673-3.915 1.784-5.4 2.469-5.325 2.454-18.792 6.894-27 8.901-1.794.439-1.268.943 1.485 1.422 11.917 2.075 35.32 11.246 47.015 18.424 5.907 3.625 13.609 8.721 15.4 10.188 1.1.901 2.72 2.163 3.6 2.804 2.664 1.94 6.331 5.273 13.843 12.581 3.938 3.831 7.252 6.874 7.364 6.761.113-.112-.184-1.447-.66-2.965-1.227-3.918-2.716-9.591-3.179-12.113-.217-1.183-.6-2.533-.85-3-.249-.466-.584-2.018-.743-3.448-.16-1.43-.661-4.4-1.115-6.6-2.203-10.677-2.531-41.878-.528-50.2.238-.99.597-3.06.797-4.6.354-2.729 2.229-10.536 4.289-17.862.561-1.998.934-3.719.828-3.826-.106-.106-3.84 3.381-8.298 7.748M268.2 150c1.653 3.3 3.101 6 3.219 6 .117 0 .729-.381 1.359-.847 1.343-.993 2.024-.732 2.016.771-.009 1.535-.288 1.821-3.194 3.267-1.43.711-3.077 1.741-3.66 2.288-2.129 1.997-2.322-.671-.216-2.984l.825-.905-1.275-2.561c-.701-1.408-1.274-2.69-1.274-2.848 0-.157-.385-.91-.856-1.671l-.856-1.385-.783 1.238c-.865 1.366-1.906 1.579-2.894.591-.73-.73-.877-.45 2.353-4.495 1.08-1.352 2.024-2.459 2.098-2.459.073 0 1.485 2.7 3.138 6m-192.353-4.121c.15.617.872 3.261 1.606 5.877 6.951 24.784 7.447 55.456 1.316 81.444-.442 1.87-1.078 4.251-1.415 5.291-1.407 4.345-.788 4.113 5.446-2.044 3.19-3.15 6.52-6.183 7.4-6.74.88-.558 2.681-2.042 4.002-3.299 1.321-1.257 2.954-2.571 3.629-2.921.675-.349 1.476-.934 1.78-1.3.304-.366 1.82-1.515 3.371-2.554 1.55-1.038 4.592-3.087 6.759-4.553 4.543-3.073 24.157-13.014 28.203-14.295.581-.184 2.856-.985 5.056-1.78 4.078-1.474 12.711-4.082 16.5-4.984 2.472-.59 2.685-1.093.6-1.42-11.974-1.88-37.735-12.029-49.7-19.579-7.462-4.709-12.078-8.015-20.285-14.531-1.587-1.26-5.161-4.68-7.943-7.6-5.641-5.921-6.762-6.809-6.325-5.012m50.553-.242c.77.197 1.884.36 2.476.361 2.153.004 2.065.202-3.664 8.202-2.34 3.267-2.422 3.699-.812 4.26 1.361.474 1.49.956.538 2.009-.992 1.096-2.142.894-4.368-.769-1.962-1.465-3.255-2.199-4.67-2.651-1.003-.321-.863-.992.32-1.531.787-.358 1.341-.348 2.43.046.775.28 1.481.439 1.567.352.855-.855 4.983-6.967 4.983-7.378 0-.346-.489-.538-1.373-.538-1.566 0-2.171-1.009-1.433-2.388.456-.853.587-.852 4.006.025m130.812 7.375c3.705 3.549 5.06 10.383 2.677 13.506-4.108 5.386-12.165-.334-12.057-8.561.023-1.768.79-4.324 1.317-4.388 1.134-.138 1.783-.415 2.741-1.17 1.463-1.154 3.754-.89 5.322.613m-117.708-.194c1.483.242 2.936.516 3.229.611.64.205-.061 1.416-4.025 6.953-3.063 4.277-3.184 4.708-1.508 5.34 1.368.517 1.477.909.538 1.947-1.011 1.117-2.106.885-4.841-1.026-1.377-.962-3.042-1.972-3.7-2.244-2.409-.998-.246-2.539 2.281-1.625 1.199.433 1.49.429 1.75-.027.171-.301 1.315-1.867 2.542-3.481 2.632-3.463 2.759-4.066.857-4.066-1.013 0-1.438-.206-1.622-.785-.329-1.035.491-2.54 1.23-2.257.315.121 1.786.418 3.269.66m112.289 2.059c-2.461 1.936.036 9.457 3.641 10.963 3.223 1.347 4.348-1.593 2.345-6.129-1.842-4.17-4.303-6.158-5.986-4.834m-98.516 4.223c.288.385 1.188 1.038 2.002 1.452 2.865 1.456 2.701 5.082-.415 9.21-6.243 8.269-16.232 3.993-11.651-4.988 2.32-4.546 8.362-7.953 10.064-5.674m90.009.732c4.071 1.96 6.692 9.482 4.722 13.55-2.481 5.127-8.849 3.519-11.734-2.962-1.49-3.349-.753-9.22 1.157-9.22.337 0 1.274-.45 2.083-1 1.729-1.175 2.034-1.204 3.772-.368m-93.773 2.537c-2.694 1.709-5.169 6.364-4.501 8.468.763 2.404 4.007 1.508 6.572-1.816 4.297-5.569 2.966-9.846-2.071-6.652m89.442.644c-1.947 2.972 1.786 10.987 5.117 10.987 3.453 0 2.682-6.292-1.281-10.458-1.704-1.791-2.901-1.956-3.836-.529m-34.765 33.804c-.32.517 3.872 7.529 5.923 9.907.831.964 2.109 2.681 2.838 3.815 1.657 2.576 18.929 20.276 21.414 21.944 1.009.677 2.465 1.807 3.235 2.51 1.373 1.254 3.396 2.705 10.6 7.603 1.98 1.347 4.411 3.006 5.402 3.688 2.258 1.554 16.585 8.841 21.398 10.883 7.72 3.277 22.152 7.71 29.2 8.97 1.98.354 6.005 1.098 8.945 1.654 2.94.555 6.705 1.009 8.367 1.009 1.662 0 4.165.199 5.561.442s2.982.33 3.525.194l.987-.248-1.278-2.094c-1.633-2.674-6.601-9.309-9.567-12.778-1.263-1.477-2.914-3.637-3.669-4.8-1.678-2.584-11.539-12.344-13.459-13.321-.764-.389-2.431-1.701-3.706-2.917-1.274-1.215-3.109-2.765-4.077-3.444a232.32 232.32 0 01-4.095-2.966c-16.123-11.962-37.085-21.528-57.663-26.317-8.723-2.03-22.315-4.099-27.147-4.133-1.362-.01-2.593.17-2.734.399m-21.39.436c-10.525.779-25.507 4.133-37.273 8.345-16.41 5.873-34.942 16.115-45.651 25.228-3.522 2.997-6.365 5.174-6.757 5.174-.726 0-11.983 11.337-13.344 13.438-.726 1.12-2.158 2.83-3.181 3.8-1.024.969-2.099 2.212-2.389 2.762-.29.55-1.741 2.62-3.224 4.6-2.768 3.693-5.638 9.06-5.213 9.748 1.006 1.628 22.28-1.698 34.432-5.383 19.076-5.786 39.406-16.164 52.406-26.752 1.252-1.021 2.96-2.286 3.794-2.813 2.209-1.394 20.288-19.248 21.873-21.6.741-1.1 2.257-3.08 3.368-4.4 1.112-1.32 2.348-3.03 2.748-3.8.399-.77 1.125-1.76 1.613-2.2.747-.675 3.598-5.737 3.598-6.39 0-.241-.508-.222-6.8.243m13.117 4.598c-2.172 3.681-6.664 14.559-8.733 21.149-.622 1.98-1.32 4.14-1.553 4.8-.232.66-.861 2.91-1.397 5s-1.355 5.15-1.821 6.8c-.465 1.65-1.017 4.71-1.225 6.8-.208 2.09-.56 5.15-.78 6.8-.927 6.923-1.091 11.973-.771 23.8.184 6.82.498 13.39.698 14.6 1.602 9.719 2.181 12.915 2.72 15 .341 1.32.852 3.39 1.136 4.6 1.578 6.724 4.853 16.62 7.441 22.485a247.468 247.468 0 012.624 6.166c1.138 2.835 3.347 6.631 3.975 6.832.237.076.909-.741 1.493-1.814 1.056-1.94 1.717-3.455 5.184-11.869 2.324-5.642 5.454-14.988 5.937-17.726.206-1.17.725-3.15 1.154-4.4 1.303-3.8 2.005-7.454 2.653-13.808.34-3.336.817-7.866 1.059-10.066 1.141-10.35.38-25.717-1.881-38a516.72 516.72 0 01-1.264-7.2c-1.839-11.025-9.223-31.401-14.13-38.993l-1.612-2.494-.907 1.538m49.488 8.705c.223.244 1.123.804 1.999 1.244 5.755 2.891-2.356 15.06-9.058 13.588-5.484-1.204-5.606-7.883-.237-13.038 2.396-2.3 6.021-3.191 7.296-1.794M151.779 217c2.935 6.224 2.922 6.21 4.639 4.988l1.141-.813.454.85c.851 1.589.149 2.748-2.328 3.843-1.257.556-3.059 1.533-4.005 2.171-2.102 1.419-2.08 1.418-2.08.05 0-.679.473-1.629 1.217-2.444 1.095-1.198 1.163-1.419.679-2.189-.296-.471-1.138-2.251-1.871-3.956-1.481-3.444-1.628-3.554-2.73-2.041-.61.838-.984 1.005-1.789.803-1.688-.423-1.678-1.386.036-3.245.854-.927 1.868-2.165 2.252-2.751 1.143-1.745 1.526-1.331 4.385 4.734m90.821-4.023c-4.384 1.992-7.413 9.403-4.252 10.406 3.398 1.079 9.853-7.925 7.423-10.354-.76-.761-1.582-.774-3.171-.052m-102.293 6.501c3.245 2.417 5.085 9.409 3.364 12.782-2.545 4.99-8.408 3.728-11.324-2.437-1.818-3.842-1.264-9.823.909-9.823.39 0 1.368-.448 2.175-.995 1.697-1.152 2.843-1.041 4.876.473m117.987-.751c2.809.44 2.833.509 1.054 3.025-6.843 9.674-6.478 8.824-4.229 9.853l1.318.604-.834.896c-1.198 1.285-2.367 1.114-4.933-.723-1.242-.89-2.892-1.883-3.665-2.206-2.349-.981-.469-2.713 1.947-1.794 1.584.602 1.694.562 2.638-.966.47-.761 1.569-2.246 2.441-3.3 1.592-1.923 1.872-3.08.764-3.154-1.649-.111-1.926-.205-2.125-.723-.118-.309-.111-.96.016-1.446.25-.956-.044-.953 5.608-.066M134.788 221.9c-2.273 2.874 1.463 10.9 5.074 10.9 3.42 0 2.332-7.247-1.607-10.7-1.808-1.585-2.347-1.616-3.467-.2m35.002 10.327c-4.834 4.745-9.33 8.905-9.99 9.244-.66.34-1.849 1.238-2.642 1.997-.793.76-2.269 1.955-3.281 2.656a429.538 429.538 0 00-3.958 2.788c-4.125 2.942-9.318 6.288-9.762 6.288-.247 0-.882.341-1.412.757-1.294 1.018-13.755 7.402-15.658 8.021-.831.271-2.271.916-3.2 1.433-2.368 1.32-13.37 5.149-20.402 7.099-6.833 1.896-6.854 1.776.646 3.754 10.099 2.664 19.156 5.901 27.269 9.745 1.76.834 4.19 1.98 5.4 2.548 2.461 1.154 5.887 3.046 8 4.418.77.5 2.922 1.784 4.783 2.854 1.86 1.069 4.13 2.515 5.044 3.212.913.697 2.976 2.135 4.584 3.194 1.607 1.059 3.478 2.48 4.156 3.158.678.678 2.133 1.848 3.233 2.602 1.1.753 3.26 2.702 4.8 4.33 1.54 1.628 3.796 3.641 5.014 4.474 2.384 1.631 4.229 3.548 6.278 6.524 1.661 2.414 2.234 2.405 1.479-.023-.578-1.859-1.291-4.496-2.189-8.1-.247-.99-.806-2.97-1.242-4.4-.436-1.43-.948-3.95-1.139-5.6-.19-1.65-.642-4.35-1.005-6-1.128-5.138-1.405-7.887-1.833-18.2-.433-10.401-.228-23.203.433-27 .21-1.21.573-3.82.806-5.8.624-5.295 1.634-10.977 2.276-12.8.574-1.632 2.922-10.839 2.922-11.459 0-.835-1.126.156-9.41 8.286m45.81-7.371c0 .486.435 2.157.966 3.714 1.794 5.257 5.177 23.336 6.106 32.63.462 4.633.348 22.883-.175 27.8-1.57 14.764-2.665 21.872-3.656 23.723-.204.381-.654 2.066-1.001 3.744-.347 1.679-1.18 4.544-1.853 6.368-1.83 4.963-1.549 5.435 1.536 2.575 1.388-1.286 2.793-2.861 3.123-3.498.881-1.704 3.253-4.205 5.331-5.622 1.003-.684 3.911-3.17 6.464-5.526 2.552-2.355 5.162-4.554 5.8-4.887.637-.333 1.699-1.174 2.359-1.869.66-.695 1.83-1.639 2.6-2.097.77-.458 2.84-1.895 4.6-3.194 5.463-4.031 14.261-8.991 24.6-13.868 3.266-1.54 5.993-2.627 11.6-4.623 1.43-.509 3.68-1.318 5-1.798 2.103-.764 5.198-1.617 11.8-3.253 3.329-.825 3.745-.974 3.773-1.35.031-.424-1.316-.815-5.482-1.591-6.243-1.163-18.99-5.272-27.091-8.732-13.899-5.937-30.368-15.741-38.576-22.964-.961-.846-3.025-2.509-4.586-3.697-1.561-1.187-2.838-2.301-2.838-2.476 0-.446-8.772-9.522-9.665-10-.61-.326-.735-.243-.735.491m54.8.991c3.892.463 4.017-.021-2.245 8.717-2.317 3.233-2.389 4.236-.302 4.236.881 0 1.047.827.324 1.625-.989 1.093-2.562.963-4.186-.347-1.808-1.457-4.283-2.878-5.014-2.878-.929 0-.663-1.032.391-1.512.677-.309 1.409-.32 2.437-.036.809.224 1.524.348 1.591.277.765-.819 5.004-6.822 5.004-7.087 0-.194-.613-.468-1.361-.608-1.459-.274-2.009-1.07-1.609-2.33.201-.633.492-.739 1.51-.551.693.128 2.25.35 3.46.494M125.123 228.9c.64 1.375 1.848 3.985 2.684 5.8 1.671 3.629 1.739 3.677 3.473 2.443.991-.706 1.265-.758 1.555-.3 1.084 1.711.224 3.074-2.792 4.428-1.451.651-3.203 1.613-3.892 2.139-2.112 1.611-2.596-.684-.539-2.562l1.212-1.107-1.184-2.571c-.65-1.413-1.457-3.245-1.791-4.07-.712-1.757-1.187-1.871-2.086-.5-.789 1.205-1.786 1.279-2.758.206-.698-.772-.673-.843.886-2.534.883-.958 1.919-2.22 2.303-2.806 1.052-1.606 1.65-1.313 2.929 1.434m158.677 3.5c.398.44.974.8 1.28.8 3.58 0 3.168 6.379-.682 10.556-7.734 8.39-16.551.076-9.075-8.556 2.875-3.319 6.826-4.624 8.477-2.8m-170.928 4.7c.892 1.925 2.138 4.625 2.77 6 1.272 2.767 1.408 2.848 2.867 1.7 1.358-1.068 1.758-1.009 2.007.296.322 1.683-.288 2.369-3.498 3.934-1.628.794-3.272 1.787-3.651 2.207-.987 1.09-1.367.947-1.367-.515 0-.836.365-1.659 1.054-2.378l1.053-1.1-1.717-4.022c-1.804-4.225-2.283-4.656-3.353-3.022-.953 1.454-3.548.82-2.911-.71.26-.623 4.669-5.89 4.93-5.89.108 0 .925 1.575 1.816 3.5m168.042-2.449c-3.965 1.959-7.027 8.037-4.983 9.887 2.143 1.939 6.645-1.648 8.292-6.606.621-1.871.337-3.532-.604-3.532-.195 0-.593-.087-.886-.192-.293-.106-1.112.093-1.819.443m-78.566 2.537c8.055 3.57 4.892 12.229-4.203 11.506-6.295-.5-9.343-4.628-7.562-10.242.803-2.529 7.329-3.23 11.765-1.264m94.076 2.241c.287.346 1.187.969 2 1.383 5.31 2.709-1.141 13.596-8.05 13.585-6.913-.01-6.777-9.454.204-14.25 2.07-1.422 4.966-1.778 5.846-.718m-102.823.472c-1.76.88-1.912 1.669-.615 3.21 3.523 4.186 14.093 2.627 11.281-1.664-1.331-2.032-7.814-2.972-10.666-1.546m-92.081 1.461c3.507 1.825 6.202 8.834 4.906 12.76-2.047 6.203-9.867 4.498-12.289-2.678-1.221-3.621-.469-8.644 1.294-8.644.337 0 1.274-.45 2.083-1 1.683-1.143 2.482-1.231 4.006-.438m192.656.327c-4.346 2.271-7.216 7.221-5.762 9.937 1.76 3.289 8.771-3.317 8.784-8.277.003-1.399-1.716-2.343-3.022-1.66m-197.22 2.923c-1.94 2.96 1.878 10.988 5.226 10.988 3.188 0 2.467-6.308-1.183-10.349-1.754-1.941-3.056-2.147-4.043-.639m104.842 6.973c4.168 1.635 6.104 5.525 4.394 8.831-2.078 4.018-11.3 3.927-14.877-.146-2.036-2.319-1.537-7.461.852-8.77 1.894-1.038 6.882-.994 9.631.085m-8.876 3.392c-1.077.937-1.097 1.021-.507 2.1 2.101 3.837 11.765 4.277 12.316.561.46-3.103-8.882-5.209-11.809-2.661m7.58 10.884c9.843 2.761 7.897 12.698-2.36 12.046-5.513-.35-8.135-2.719-7.923-7.159.242-5.045 3.761-6.717 10.283-4.887m-6.418 2.991c-1.743.502-2.437 1.949-1.571 3.272 2.249 3.431 12.287 3.555 12.287.152 0-2.745-6.2-4.727-10.716-3.424m128.516 9.23c-1.32.201-3.93.644-5.8.985-1.87.341-4.75.865-6.4 1.163-8.731 1.58-16.429 3.826-28.6 8.345-8.062 2.993-24.594 11.857-30.6 16.406-1.21.917-2.761 2.016-3.446 2.443-2.777 1.73-8.191 6.063-12.123 9.703-2.293 2.123-4.94 4.349-5.882 4.946-.943.598-2.191 1.861-2.774 2.807-.584.946-2.732 3.43-4.775 5.52-2.043 2.09-4.186 4.52-4.763 5.4-.578.88-1.961 2.68-3.075 4-1.113 1.32-2.358 3.043-2.765 3.829-.407.785-1.582 2.461-2.611 3.724-2.231 2.74-2.197 2.8 1.511 2.685 12.19-.38 35.865-6.206 48.103-11.838 13.961-6.425 22.444-11.228 31.423-17.79 1.663-1.216 4.183-3.054 5.6-4.086 2.869-2.088 2.81-2.033 14.651-13.587 4.658-4.544 8.957-9.044 9.554-10 .597-.955 1.775-2.493 2.618-3.417.844-.924 2.335-2.93 3.314-4.458.98-1.528 1.977-2.899 2.216-3.047.498-.308 2.024-3.173 2.024-3.799 0-.496-3.941-.461-7.4.066m-256.932.21c-.813.1-1.262.348-1.151.636.348.907 5.6 8.484 6.843 9.872.69.77 1.682 2.12 2.205 3 .523.88 1.78 2.415 2.793 3.41 1.013.996 5.442 5.474 9.842 9.951s8.72 8.592 9.6 9.144c.88.553 2.41 1.714 3.4 2.58 2.179 1.907 7.876 6.023 9.495 6.861.645.333 2.057 1.294 3.139 2.134 2.75 2.137 6.072 4.058 10.966 6.342 2.31 1.078 4.83 2.36 5.6 2.85.77.489 2.75 1.453 4.4 2.141 1.65.689 3.72 1.582 4.6 1.985 4.192 1.919 21.285 7.161 26 7.975 9.653 1.665 12.009 2.109 12.372 2.333.227.14 2.846.399 5.82.574 2.975.175 6.189.429 7.143.564 3.075.437 2.841-.134-3.597-8.778a216.845 216.845 0 01-3.012-4.155c-.701-1-3.038-3.716-5.193-6.034-2.156-2.318-4.409-4.986-5.006-5.928-.598-.943-1.861-2.194-2.807-2.78-.946-.587-3.628-2.935-5.96-5.218s-4.419-4.151-4.638-4.151c-.219 0-1.46-.93-2.758-2.066-1.298-1.136-3.621-2.87-5.162-3.854s-3.612-2.452-4.602-3.262c-.99-.81-2.52-1.832-3.4-2.271-2.375-1.185-5.517-2.982-6.2-3.547-1.245-1.031-11.523-6.064-18.4-9.01-8.289-3.552-22.844-7.739-32.4-9.321-14.342-2.375-15.644-2.504-19.932-1.977M202.6 281.4c7.814 3.907 4.526 12.093-4.522 11.259-6.332-.584-9.276-4.593-7.495-10.207.855-2.693 7.56-3.281 12.017-1.052m-8.4 2.062c-4.639 1.278-.538 6.144 5.171 6.136 5.261-.007 7.35-3.371 3.372-5.428-1.309-.677-6.956-1.145-8.543-.708m7.112 12.002c8.139 2.591 7.024 11.721-1.449 11.873-3.566.064-6.085-.78-8.105-2.716l-1.709-1.637.167-2.941c.299-5.256 4.076-6.815 11.096-4.579m-6.03 2.507c-2.361.395-3.587 1.642-2.962 3.013 1.804 3.959 12.48 4.322 12.48.424 0-2.332-5.106-4.176-9.518-3.437" fill="#303f4d"/></g></svg>